<svg width="2362" height="2362" viewBox="0 0 2362 2362" fill="none" xmlns="http://www.w3.org/2000/svg">
<rect width="2362" height="2362" fill="url(#paint0_linear_1171_9316)"/>
<mask id="mask0_1171_9316" style="mask-type:alpha" maskUnits="userSpaceOnUse" x="432" y="707" width="1452" height="1061">
<path d="M1111.84 711.888C1168.49 700.977 1225.14 708.992 1276.05 737.491C1291.92 746.379 1305.37 757.123 1320.25 767.524L1348.95 796.021C1408.81 864.216 1430.43 958.195 1395.9 1042.37C1382.24 1075.68 1355.86 1108.58 1386.53 1141.07C1425.05 1181.57 1509.74 1226.79 1560.59 1181.91C1579.07 1165.67 1590.26 1142.67 1591.63 1118.09C1595.35 1053.86 1541.44 995.115 1569.29 922.372C1589.32 860.185 1653.96 825.446 1716.68 843.529C1726.49 846.357 1741.04 856.318 1747.95 864.432C1773.76 894.756 1755.47 950.003 1710.3 941.575C1629.65 926.521 1687.58 1022.16 1694.87 1056.72C1722.94 1154.69 1680.13 1260.49 1583.93 1300.25C1576.55 1303.31 1547.38 1309.2 1544.48 1311.69C1567.06 1317.2 1614.88 1303.31 1641.13 1304.12C1682.85 1303.8 1723.49 1325.72 1743.73 1362.57C1758.42 1389.29 1777.77 1430.45 1769.23 1461.39C1757.44 1504.13 1699.5 1509.29 1679.71 1468.45C1670 1448.42 1668.86 1421.43 1646.29 1413.29C1626.35 1406.44 1599.88 1416.83 1578.83 1420.33L1545.07 1423.91C1486.28 1419.9 1440.59 1392.39 1392.84 1359.13L1389.12 1359.58L1387.56 1362.05C1389.19 1366.71 1401.25 1381.23 1403.16 1385.78L1404.18 1387.27C1419.31 1408.95 1440.96 1425.94 1463.69 1439.04C1489.55 1453.93 1521.54 1459.85 1535.46 1489.37C1539.96 1498.92 1541.23 1509.44 1539.43 1519.85C1537.34 1531.94 1530.77 1543.38 1520.66 1550.48C1505.9 1560.84 1484.66 1560.62 1467.65 1557.2C1402.87 1544.21 1330.22 1484.53 1294.57 1430.43C1286.69 1418.45 1278.77 1405.16 1273.08 1391.94L1269.56 1396.72C1275.7 1421.68 1281.36 1446.77 1296.53 1468.11C1312.94 1491.22 1338.79 1505.09 1358.33 1525.18C1387.22 1554.89 1409.69 1609.72 1386.04 1648.57C1380.23 1658.1 1372.55 1662.45 1361.88 1664.77C1349.19 1667.52 1336.28 1666.6 1325.1 1659.51C1304.74 1646.61 1301.95 1619.92 1286.49 1602.55C1273.96 1588.46 1255.16 1579.53 1239.58 1569.27C1191.78 1537.81 1170.58 1482.96 1160.13 1428.73C1159.78 1426.92 1159.5 1425.11 1159.23 1423.27C1146.29 1482.25 1126.7 1538.64 1073.38 1572.75C1058.32 1582.38 1040.72 1589.8 1028.71 1603.43C1005.88 1629.35 1007.14 1673.88 955.359 1662.38C951.866 1661.61 948.441 1660.29 945.087 1659.06L927.408 1640.8C902.253 1585.95 948.254 1525.67 991.017 1495.54C1036.67 1463.38 1043.02 1422 1052.59 1370.23C1049.25 1378.45 1045.62 1386.56 1041.71 1394.53C1029.42 1419.48 1012.91 1446.3 993.298 1467.02C960.086 1502.09 914.302 1535.46 868.59 1551.81C848.527 1558.51 821.04 1562.57 801.571 1552.27C781.175 1541.48 771.365 1516.05 779.176 1494.41C789.813 1464.94 820.086 1456.67 845.171 1443.89C885.723 1423.23 916.38 1388.62 938.261 1349.29C899.666 1385.64 839.802 1419.07 786.862 1422.78C749.274 1425.42 713.711 1406.31 677.108 1410.23C649.052 1413.23 647.203 1455.56 633.644 1473.5C610.788 1506.65 555.895 1497.84 548.189 1457.23C542.983 1421.01 562.192 1378.78 583.471 1350.72C638.51 1278.18 711.201 1316.59 781.16 1309.84C752.037 1307.23 721.825 1295.95 697.47 1279.81C667.088 1259.53 643.581 1230.48 630.068 1196.52C604.274 1133.47 611.37 1079.3 634.29 1020.07C649.966 979.561 665.575 928.19 605.568 943.212C586.571 947.968 562.724 935.133 558.734 913.172C551.301 872.255 584.44 847.09 620.733 841.193C650.3 836.187 680.626 843.479 704.696 861.383C725.329 876.535 736.227 892.677 745.645 915.598C778.986 996.732 718.025 1053.23 726.948 1128.67C729.504 1150.29 744.205 1174.06 762.264 1186.9C781.486 1200.57 806.109 1203.61 829.386 1199.07C864.208 1192.29 914.313 1163.59 935.149 1133.88C958.117 1102.5 935.978 1077.77 922.755 1047.98C859.584 905.657 965.016 740.165 1111.84 711.888ZM1236.28 1107.08C1229.39 1112.76 1223.54 1119.48 1216.65 1125.17C1195.78 1142.35 1170.07 1145.67 1143.79 1143.29C1134.55 1142.46 1124.75 1140.72 1116.08 1137.32C1110.38 1135.09 1103.95 1131.13 1097.88 1130.4C1094.62 1130.01 1090.14 1131.06 1087.52 1133.1C1085.44 1134.73 1084.29 1136.86 1084.33 1139.52C1084.41 1144.81 1088.83 1151.19 1092.99 1154.17C1095.01 1155.62 1097.17 1156.88 1099.31 1158.14C1133.22 1172.04 1175.33 1175.27 1209.64 1160.7C1224.76 1154.28 1244.69 1140.49 1250.96 1124.72C1252.26 1121.47 1252.91 1117.76 1251.64 1114.39C1250.42 1111.13 1247.25 1108.58 1244.03 1107.44C1241.86 1106.68 1239.64 1106.32 1237.35 1106.21L1236.28 1107.08ZM1037.69 929.343C1030.14 929.251 1021.84 928.889 1014.38 929.917C1001.44 930.93 976.882 931.573 967.999 942.445C959.691 952.614 962.458 972.408 964.244 984.516C967.215 1004.68 973.911 1030 991.121 1042.95C1010.08 1057.21 1043.29 1055.24 1065.24 1051.47C1067.1 1051.15 1068.91 1050.78 1070.74 1050.37C1089.89 1043.95 1102.36 1032.97 1111.27 1014.99C1120.62 996.109 1128.79 969.939 1121.56 949.289C1102.08 929.594 1063.89 929.66 1037.69 929.343ZM1342.74 938.22C1326.45 926.721 1281.73 927.298 1261.57 929.436C1244.93 930.761 1209.89 932.031 1198.05 945.334C1191.69 952.488 1190.77 962.299 1191.58 971.437C1193.53 993.457 1202.67 1024.22 1220.53 1038.81C1237.82 1052.92 1263.71 1054.51 1285.03 1054.17C1304.52 1051.89 1320.03 1049.6 1332.95 1033.16C1347.69 1014.43 1356.05 979.025 1352.53 955.688C1351.48 948.755 1348.62 942.36 1342.74 938.22Z" fill="black"/>
<path d="M1299.76 937.207C1302.13 937.672 1304.92 938.229 1306.96 939.572C1309.16 941.019 1310.22 943.53 1310.32 946.044C1310.7 954.992 1274.4 1021.98 1267.32 1033.04C1265.37 1036.09 1263.02 1038.67 1260.44 1041.21C1258.41 1040.43 1256.26 1039.65 1254.55 1038.34C1252.2 1036.55 1250.09 1033.48 1250.35 1030.43C1251.02 1022.49 1287.3 953.559 1293.21 944.222C1294.97 941.434 1297.24 939.326 1299.76 937.207Z" fill="black"/>
<path d="M1265.22 937.207C1269.32 937.32 1271.7 937.318 1274.81 940.159C1275.37 942.433 1275.49 944.261 1275.09 946.551C1272.8 959.614 1244.28 1015.4 1236.67 1027.67C1235.4 1029.7 1233.78 1030.86 1231.86 1032.21C1231.29 1031.81 1230.71 1031.42 1230.14 1031.01C1226.96 1028.7 1223.62 1025.72 1223.33 1021.52C1222.81 1014.05 1258.61 944.155 1265.22 937.207Z" fill="black"/>
<path d="M1067.36 938.207C1070.81 938.504 1073.26 938.767 1076.37 940.482C1077.35 942.061 1078.14 942.87 1078.31 944.769C1079.24 955.328 1038.25 1031.99 1029.07 1042.21C1026.47 1042.1 1023.95 1041.66 1021.82 1040.04C1019.56 1038.31 1018.56 1035.84 1018.33 1033.06C1017.8 1026.6 1061.86 943.942 1067.36 938.207Z" fill="black"/>
<path d="M1032.15 938.245C1035.29 938.143 1037.69 938.189 1040.75 939.146C1042.88 941.55 1043.31 942.004 1043.33 945.405C1043.36 953.512 1007.96 1027.02 999.906 1036.09C997.666 1036.36 995.836 1036.27 993.96 1034.79C991.692 1033 990.618 1030.51 990.355 1027.7C989.214 1015.57 1023.98 949.19 1032.15 938.245Z" fill="black"/>
<path fill-rule="evenodd" clip-rule="evenodd" d="M859.869 1600.03C867.873 1595.28 879.276 1595.47 888.006 1597.83C892.296 1598.99 896.575 1601.17 898.728 1605.25C902.565 1612.54 895.415 1626.64 893.972 1634.71C897.977 1635.41 901.77 1635.54 904.773 1638.55C908.022 1645.42 903.583 1653.89 901.597 1660.76L914.467 1663.74C913.097 1671.47 911.622 1679.04 911.565 1686.91C931.559 1690.55 952.175 1695.57 972.384 1697.46C975.527 1694.94 979.258 1696.67 983.217 1696.98C984.17 1692.27 983.867 1687.11 984.853 1682.67C985.542 1679.57 986.885 1679.16 989.365 1677.51L990.989 1677.87C992.058 1676.05 991.321 1676.91 993.4 1675.47C1000.14 1669.09 1011.32 1667.18 1020.43 1666.97C1023.16 1666.91 1024.1 1667.06 1025.91 1669.17C1026.12 1669.42 1027.29 1671.31 1027.43 1671.53C1029.77 1675.16 1032.71 1677.54 1037.01 1678.45C1040.72 1679.22 1044.59 1679.58 1048.35 1680.02C1050.51 1674.3 1052.43 1668.84 1053.71 1662.84C1049.83 1662.19 1035.11 1660.62 1033.15 1658.11C1040.91 1651.49 1042.21 1649.65 1043.78 1639.51L1042.33 1638.66C1037.26 1635.63 1032.58 1632.75 1030.35 1626.95C1031.18 1624.31 1031.88 1623.38 1034.48 1622.19C1045.87 1616.99 1111.87 1627.62 1124.12 1633.45C1126.98 1634.82 1129.26 1636.31 1130.36 1639.43C1132.2 1644.67 1131.06 1651.5 1129.87 1656.73C1126.52 1671.59 1119.78 1686.62 1114.77 1701.04C1107.97 1720.61 1102.35 1740.89 1094.13 1759.91C1083.31 1767.96 1076.51 1768.11 1063.54 1766.19C1043.28 1763.18 1023.17 1759.07 1002.97 1755.72L889.447 1737.3C867.416 1733.51 840.625 1731.85 819.542 1725.66C815.982 1724.62 812.139 1721.63 810.05 1718.56C806.407 1713.18 806.993 1705.06 808.505 1699.1C813.701 1678.6 833.096 1646.8 843.333 1626.42C846.622 1619.87 849.285 1611.64 853.41 1605.66C854.968 1603.42 857.537 1601.42 859.869 1600.03ZM1060.9 1720.21C1059.38 1725.3 1056.82 1731.22 1059.48 1736.36C1060.23 1737.8 1061.38 1738.43 1062.73 1739.21C1066.29 1739.15 1068.96 1738.66 1071.7 1736.31C1074.99 1732.42 1077.2 1728.8 1079.33 1724.2C1073.05 1723.18 1066.92 1722.28 1060.9 1720.21ZM1026.9 1714.21C1024.79 1720.06 1023.56 1725.89 1022.33 1731.97C1031.06 1732.79 1039.76 1733.88 1048.42 1735.21C1049.9 1729.58 1051.39 1723.99 1052.33 1718.25C1043.93 1716.85 1035.37 1715 1026.9 1714.21ZM896.766 1692.21C893.905 1697.64 892.095 1702.89 890.327 1708.74C915.475 1713.23 940.666 1717.48 965.897 1721.47C981.369 1724.07 997.024 1727.53 1012.6 1729.21C1014.55 1723.59 1016.05 1718.09 1017.33 1712.28C977.717 1703.9 936.817 1698.32 896.766 1692.21ZM1033.53 1685.21C1033.46 1690.09 1032.44 1698.56 1035.75 1702.47C1038.67 1705.92 1075.72 1711.3 1080.92 1711.21C1083.22 1711.16 1084.05 1711.31 1085.57 1709.28C1085.87 1708.88 1086.24 1707.6 1086.4 1707.09C1088.25 1702.55 1089.93 1697.78 1092.33 1693.49C1072.89 1690.25 1053.22 1686.55 1033.53 1685.21ZM857.327 1703.7C865.013 1705.18 872.584 1706.69 880.404 1707.21C882.475 1702.08 884.843 1696.91 886.327 1691.58L862.323 1687.21L857.327 1703.7ZM835.461 1681.21C832.385 1687.04 829.136 1692.83 826.327 1698.8C833.101 1700.11 839.845 1701.5 846.709 1702.21C848.946 1696.46 851.152 1690.68 853.327 1684.89C847.389 1683.71 841.326 1682.71 835.461 1681.21ZM1003.15 1682.21C1001.87 1686.57 1000.31 1690.96 1002.22 1695.4C1003.62 1698.64 1006.41 1700.35 1009.68 1701.24C1013 1702.13 1016.79 1702.17 1020.21 1702.21C1021.35 1696.23 1021.93 1690.46 1022.33 1684.4C1015.83 1684.04 1009.56 1683.22 1003.15 1682.21ZM1060.7 1663.21C1059.59 1668.93 1058.56 1674.68 1057.33 1680.37C1063.89 1681.3 1089.98 1686.62 1094.19 1684.85C1096.19 1679.86 1098.04 1674.71 1100.33 1669.86C1087.46 1667.14 1073.8 1664.3 1060.7 1663.21ZM839.327 1674.01C858.925 1677.58 878.895 1681.44 898.755 1683.21C901.821 1680.09 906.071 1676.34 906.312 1671.72C906.393 1670.13 906.159 1670.48 904.908 1669.1C886.944 1663.98 865.841 1660.84 847.141 1659.21L839.327 1674.01ZM1083.47 1642.21C1081.86 1647.91 1080.48 1653.57 1079.33 1659.38C1085.57 1660.37 1097.77 1663.79 1103.5 1661.34C1105.48 1657.22 1108.29 1652.74 1108.33 1648.1C1106.96 1645.68 1106.68 1644.92 1103.75 1644.14C1098.01 1642.61 1089.58 1642.85 1083.47 1642.21ZM858.111 1635.21C855.445 1640.72 852.85 1646.26 850.327 1651.84C864.685 1655.03 879.399 1656.57 893.649 1660.21C896.679 1654.96 897.833 1649.04 899.327 1643.18C885.616 1640.33 871.931 1637.44 858.111 1635.21ZM1053.09 1637.21C1051.38 1642.44 1048.92 1647.52 1051.34 1652.85C1056.66 1657.49 1065.87 1657.17 1072.7 1658.21C1074.49 1652.49 1075.58 1647.15 1076.33 1641.22C1068.61 1639.72 1060.86 1638.38 1053.09 1637.21ZM870.238 1612.21C865.907 1617.34 863.119 1623 860.327 1629.05C867.543 1630.4 874.751 1631.79 881.952 1633.21C885.497 1628.54 886.701 1621.41 888.327 1615.82C882.186 1614.02 876.653 1612.74 870.238 1612.21Z" fill="black"/>
<path fill-rule="evenodd" clip-rule="evenodd" d="M1416.88 1603.86C1426.35 1599.12 1438.47 1594.88 1448.98 1598.66C1465.01 1604.43 1472.27 1631.79 1480.74 1645.4L1491.8 1667.32L1492.53 1669.36C1497.74 1683.55 1513.59 1700.16 1506.56 1716.04C1505.04 1719.47 1502.36 1722.54 1499.68 1725.13C1476.92 1730.45 1453.74 1733.32 1430.69 1737.07L1316.95 1755.45C1293.89 1759.01 1267.56 1766.34 1244.62 1767.18C1238.71 1767.41 1232.45 1766.12 1227.48 1762.81C1223.78 1760.35 1221.56 1756.52 1219.64 1752.61C1210.03 1733.02 1204.88 1709.33 1198.43 1688.41C1195.23 1677.98 1190.66 1667.39 1188.87 1656.62C1187.59 1648.92 1188.54 1644.47 1192 1637.57C1203.36 1632.1 1269.91 1620.06 1280.78 1623.32C1282.36 1623.79 1283.48 1624.66 1284.69 1625.7C1285.5 1628.33 1285.29 1629.55 1284.04 1632.03C1281.73 1636.59 1277.11 1637.82 1272.65 1639.47C1273.52 1644.79 1274.29 1650.1 1275.66 1655.32C1280.04 1655.07 1283.87 1654.58 1288.01 1656.3L1287.92 1657.74C1279.91 1661.53 1271.28 1662.3 1262.82 1664.57C1264.26 1669.62 1265.52 1674.84 1267.38 1679.74C1274.17 1679.81 1281.35 1679.86 1287.37 1676.33C1291 1675 1291 1675 1295.5 1674C1304.5 1673.5 1307.27 1671.85 1316 1672.5L1318.34 1672.8H1319.71C1321.33 1672.41 1320.44 1672.57 1322 1672C1326.88 1679.22 1321.34 1689.86 1328 1698C1328.5 1699 1327.47 1699.62 1329.74 1699.06L1337.02 1698.63C1355.52 1698.13 1388.54 1689.85 1406.51 1685.17L1406.27 1683.9V1681.83C1404.78 1677.67 1404.13 1680.33 1405 1677.5C1405.86 1674.73 1402.72 1675.26 1403 1671.5L1399.84 1661.48C1402.72 1660.22 1406.03 1661.35 1409 1661.9C1410.11 1661.86 1411.44 1661.28 1412.5 1660.95C1414.06 1654.57 1408.08 1647.78 1409.25 1640.47C1411.34 1637.61 1412.25 1637.73 1415.56 1636.73C1413.92 1625.85 1411.11 1614.65 1414.95 1604.01L1416.88 1603.86ZM1252.98 1722.44C1247.12 1723.37 1241.13 1724.11 1235.33 1725.39C1238.52 1730.32 1241.53 1735.69 1245.32 1740.21L1260.33 1738.65C1259.36 1733.81 1258.82 1725.41 1255.14 1722.21L1252.98 1722.44ZM1289.26 1715.76C1287.4 1715.16 1286.44 1715.06 1284.52 1715.4C1277.74 1716.18 1270.99 1716.86 1264.33 1718.33C1265.53 1723.75 1266.34 1729.13 1269.4 1733.91C1270.86 1734.72 1271.44 1735.09 1273.16 1735.21C1279.88 1734.01 1286.52 1732.9 1293.33 1732.24C1292.41 1727.16 1292.31 1720.07 1289.26 1715.76ZM1414.48 1694.21C1375.33 1698.37 1335.95 1705.89 1297.33 1713.6C1298.48 1719.49 1299.22 1725.33 1302.3 1730.53C1304.95 1731.36 1303.73 1731.34 1305.94 1730.95C1344.95 1724.09 1384.52 1718.57 1423.33 1710.69C1421.38 1705.31 1419.76 1699.41 1416.61 1694.63L1414.48 1694.21ZM1281.71 1686.93C1279.69 1686.15 1278.76 1686.03 1276.63 1686.43C1259.89 1689.42 1242.96 1691.98 1226.33 1695.41C1227.44 1699.42 1229.2 1709.79 1232.65 1712.39C1233.12 1712.76 1233.71 1712.93 1234.23 1713.21C1249.98 1710.44 1265.86 1708.15 1281.57 1705.26C1282.67 1699.31 1284.83 1692.52 1281.71 1686.93ZM1448 1687.21C1440.48 1688.73 1433.47 1690.36 1426.33 1693.25C1428.17 1698.21 1429.69 1703.48 1433.02 1707.63C1435.65 1708.33 1434.46 1708.33 1436.62 1707.97C1443.54 1706.9 1450.52 1706 1457.33 1704.26C1455.28 1699.3 1452.91 1690.24 1448.91 1687.22L1448 1687.21ZM1310.53 1683.21C1304.61 1684.2 1299.08 1685.37 1293.33 1687.2C1294.69 1692.91 1295.5 1698.44 1299.13 1703.21C1304.24 1702.68 1307.54 1702.55 1311.04 1698.31C1313.7 1695.07 1315.58 1691.86 1315.3 1687.53C1315.16 1685.51 1314.03 1685 1312.71 1683.62L1310.53 1683.21ZM1460.33 1686.84C1462.61 1691.57 1465.65 1700.87 1470.64 1703.21L1489.33 1700.28C1486.66 1694.93 1483.34 1685.69 1478.29 1682.21L1460.33 1686.84ZM1216.33 1671.13C1218.29 1676.43 1220.02 1683.75 1223.35 1688.21C1235.33 1685.89 1247.22 1683.89 1259.33 1682.38L1254.73 1666.09L1253.09 1665.21L1216.33 1671.13ZM1453.04 1631.21C1440.27 1636.67 1427.62 1641.52 1414.3 1645.55C1416.91 1652.01 1419.17 1658.6 1423.23 1664.32C1423.55 1664.78 1423.86 1665.24 1424.18 1665.69L1409.33 1670.12C1411.5 1675.14 1413.27 1680.53 1417.12 1684.53C1419.29 1685.38 1419.54 1685.35 1421.82 1684.87C1439.41 1681.35 1458.31 1679.3 1475.33 1673.81C1471.11 1665.4 1458.53 1636.49 1453.04 1631.21ZM1233.08 1644.21C1224.12 1644.71 1215.2 1646.18 1206.33 1647.4C1207.9 1652.16 1209.44 1660.25 1214.45 1662.37C1220.13 1664.77 1229.75 1661.22 1236.05 1661.37C1237.31 1658.26 1233.93 1648.2 1233.08 1644.21ZM1264.03 1640.21C1255.75 1640.92 1247.49 1642.04 1239.24 1643.09L1244 1659.5L1266.33 1655.25L1264.03 1640.21ZM1444.76 1613.76C1442.65 1613.17 1442.03 1613.06 1439.76 1613.39L1427.33 1616.69C1428.76 1622.11 1429.25 1627.6 1433.88 1631.21C1436.18 1631.13 1438.25 1630.89 1440.51 1630.44L1452.33 1626.79C1450.24 1622.18 1448.59 1617.24 1444.76 1613.76Z" fill="black"/>
<path fill-rule="evenodd" clip-rule="evenodd" d="M520.536 1418.21C523.312 1418.34 525.939 1418.71 528.332 1420.29C530.679 1421.83 530.599 1422.75 530.761 1425.27C526.311 1433.57 512.289 1439.85 504.298 1444.66C510.419 1449.01 526.194 1457.77 528.838 1464.62C529.437 1466.17 528.476 1467.33 527.896 1468.76C520.032 1467.41 503.611 1453.73 496.354 1448.65L477.001 1461.15C490.375 1469.4 502.035 1480.16 515.366 1488.55C519.267 1485.71 523.596 1482.92 528.516 1482.71L529.866 1483.99C530.165 1488.08 528.123 1491.78 526.551 1495.46C528.963 1499.3 584.578 1538.03 592.037 1542.44C592.818 1542.15 593.562 1541.86 594.379 1541.67C599.574 1540.46 605.664 1545.48 610.379 1548.1L623.171 1539.55C615.715 1530.48 605.719 1525.57 597.272 1517.86C595.287 1516.05 594.878 1514.69 594.92 1512.11C605.694 1507.17 613.076 1523.09 622.502 1525.2C624.601 1525.67 627.545 1523.07 629.331 1521.96C632.33 1521.93 633.094 1521.4 635.639 1523.17C636.244 1526.79 634.585 1530.74 633.546 1534.21C639.109 1536.9 643.94 1539.87 648.988 1543.39L661.526 1531.49C654.442 1527.13 647.182 1522.9 640.229 1518.35C637.037 1516.25 635.717 1514.89 634.97 1511.16C636.98 1505.12 646.448 1498.35 647.391 1494.15C648.709 1488.3 645.768 1483.02 650.731 1478.05C657.627 1476.95 673.052 1490.39 678.88 1494.42C694.07 1505.3 721.841 1520.89 733.866 1533.3C736.69 1536.21 738.504 1538.9 738.313 1543.18C738.105 1547.84 736.171 1552.03 732.744 1555.19C717.858 1568.88 697.968 1579.56 681.039 1590.77C667.957 1599.44 655.076 1609.42 641.28 1616.87C636.465 1619.47 627.658 1624.08 622.241 1623.06C616.7 1622.02 609.081 1616.69 604.371 1613.59C573.766 1593.41 544.493 1570.54 514.727 1549.11C498.834 1537.65 444.739 1501.63 435.437 1489.93C431.889 1485.48 432.002 1480.08 432.755 1474.75C439.206 1464.08 506.598 1424.9 520.536 1418.21ZM625.681 1574.21C625.287 1574.22 624.837 1574.27 624.297 1574.37C620.047 1578.45 615.866 1582.63 611.327 1586.4C615.231 1589.25 621.384 1595.04 626.535 1594.11C628.506 1593.75 630.406 1592.34 632.05 1591.29L642.327 1586.52C642.311 1586.51 642.296 1586.5 642.28 1586.48L642.327 1586.46C638.256 1582.91 634.154 1578.92 629.647 1575.94C627.894 1574.79 627.214 1574.17 625.681 1574.21ZM603.892 1558.21C598.488 1561.81 594.363 1565.66 590.327 1570.87C594.791 1575.13 599.176 1579.91 604.34 1583.21C608.925 1578.29 613.587 1573.47 618.327 1568.73L603.892 1558.21ZM618.327 1554.84C626.301 1560.44 645.406 1578.16 653.381 1579.21L655.31 1578.03L670.327 1568.32C660.831 1561.38 641.507 1544.73 631.269 1541.21L618.327 1554.84ZM514.582 1499.21C509.494 1502.12 504.96 1505.25 500.327 1508.82C514.604 1520.12 529.771 1530.39 544.605 1540.94C556.614 1549.48 569.227 1559.81 582.514 1566.21L595.327 1553.4C587.158 1546.78 521.944 1499.41 514.582 1499.21ZM667.147 1535.21C663.223 1539.18 659.32 1542.96 656.327 1547.71C663.34 1553.02 671.26 1559.75 679.317 1563.21C680.833 1562.65 681.339 1562.82 682.179 1561.38C686.217 1557.61 690.314 1555.94 695.327 1553.84C686.232 1547.59 676.987 1540.18 667.147 1535.21ZM686.327 1539.48C690.449 1542.55 696.228 1548.19 701.265 1549.21L702.242 1548.97C706.645 1546.11 711.224 1543.36 715.327 1540.09C710.015 1536.12 704.259 1530.98 698.242 1528.21L686.327 1539.48ZM665.327 1524.6C668.845 1527.17 677.781 1535.54 681.677 1536.21C685.846 1532.35 689.984 1528.48 694.327 1524.83C688.721 1520.49 683.141 1516.19 677.282 1512.21L665.327 1524.6ZM657.174 1497.21C652.477 1501.01 648.333 1504.7 644.327 1509.31C649.637 1513.64 654.768 1517.82 660.687 1521.21C664.202 1517.08 667.641 1512.82 671.327 1508.85C666.746 1504.65 662.329 1500.63 657.174 1497.21ZM488.748 1480.21C484.115 1483.72 479.593 1487.21 475.327 1491.19C480.678 1495.2 486.728 1500.78 492.888 1503.21C497.359 1499.86 502.02 1496.65 506.327 1493.09C501.487 1488.78 494.974 1482.14 488.748 1480.21ZM469.538 1464.21C464.136 1467.77 458.765 1471.41 453.327 1474.9C457.701 1478.45 462.037 1482.45 466.918 1485.21C472.747 1481.81 477.379 1477.86 482.327 1473.26C478.173 1469.86 474.317 1466.65 469.538 1464.21Z" fill="black"/>
<path fill-rule="evenodd" clip-rule="evenodd" d="M1791.31 1418.63C1793.7 1417.91 1795.49 1418.13 1797.7 1419.12C1807.53 1423.5 1880.61 1466.05 1882.65 1473.15C1884.39 1479.15 1882.52 1485.17 1879.96 1490.6L1864.83 1502.3C1827.65 1528.7 1791.21 1556.1 1754.18 1582.72C1737.1 1594.99 1719.71 1608.92 1701.48 1619.31C1697.6 1621.52 1693.35 1622.35 1689.02 1623.2L1688.95 1623.21C1684.89 1621.99 1680.8 1620.58 1677.09 1618.51C1660.56 1609.33 1644.86 1597.25 1629.13 1586.71C1615.48 1577.54 1600.78 1569.17 1587.81 1559.1C1584.52 1556.55 1579.93 1552.89 1578.25 1549.02C1577.22 1546.65 1576.99 1545.87 1577.87 1543.5C1579.41 1539.35 1582.67 1535.91 1585.85 1532.92C1595.97 1523.45 1652.05 1483.72 1664.04 1478.15C1666.73 1478.46 1666.56 1478.85 1668.44 1480.61C1669.96 1485.39 1668.46 1490.28 1668.36 1495.21C1672.04 1500.9 1678.17 1505.17 1683.31 1509.51C1675.2 1518.62 1663.97 1525.35 1654.05 1532.28C1658.24 1536.3 1662.93 1539.88 1667.4 1543.58C1670.99 1540.99 1680.96 1535.41 1682.46 1531.23C1683.71 1527.75 1681.43 1526.08 1684.7 1523.21C1688.72 1523.43 1691.34 1525.17 1694.78 1527.17C1699.79 1522.81 1705.3 1516.83 1712.07 1515.79C1714.09 1516.61 1715.02 1517.18 1716.4 1518.88C1710.77 1526.02 1701.48 1531.31 1694.25 1536.82C1697.57 1540.69 1701.3 1544.3 1704.83 1547.98C1706.35 1547.07 1707.92 1546.21 1709.43 1545.26C1715.8 1541.29 1722.35 1542.41 1729 1538.66C1743.57 1530.46 1775.33 1506.33 1788.6 1494.81C1788.2 1490.25 1787.86 1487.9 1790.7 1484.09C1794.89 1482.72 1796.84 1484.87 1801.03 1485.53C1805.25 1486.19 1833.58 1463.72 1839.34 1459.53C1832.41 1455.85 1825.43 1452.27 1818.43 1448.74C1810.6 1453.74 1803.7 1460.27 1795.84 1465.13C1793.52 1466.56 1790.78 1468.71 1788.05 1468.09L1787.97 1465.06C1792.25 1456.02 1804.34 1450.47 1812.4 1444.89C1805.25 1439.71 1796.14 1436.79 1789.53 1430.89C1786.93 1428.56 1785.92 1426.67 1785.66 1423.24C1787.21 1420.87 1788.47 1419.48 1791.31 1418.63ZM1690.02 1574.21C1684.2 1578.59 1678.46 1583.13 1672.33 1587.06C1678.6 1590.47 1684.96 1594.41 1691.52 1597.21C1696.39 1594.37 1700.83 1591.16 1705.33 1587.78C1700.48 1583.08 1695.76 1577.8 1690.02 1574.21ZM1697.33 1568.68C1701.25 1572.75 1707.7 1581.17 1713.45 1582.21L1727.33 1570.98C1722.25 1566.91 1717.14 1562.01 1711.19 1559.21L1697.33 1568.68ZM1671.26 1551.35L1659.99 1559.29C1656.6 1561.52 1651.84 1563.97 1649.26 1567.08C1647.94 1568.68 1648.36 1567.84 1648.52 1570.34C1653.18 1573.99 1658.42 1577.62 1663.75 1580.21C1675.82 1573.28 1686.04 1563.35 1697.89 1555.97L1699.33 1555.08C1694.01 1550.98 1688.96 1546.63 1683.92 1542.21L1671.26 1551.35ZM1648.17 1536.21C1639.56 1542.73 1630.8 1549.14 1622.33 1555.87L1637.17 1566.21C1643.41 1560.83 1651.09 1553.05 1658.69 1549.99L1660.33 1547.44L1659.31 1544.84C1655.48 1542.09 1651.77 1539.29 1648.17 1536.21ZM1798.98 1498.21C1776.74 1512.67 1740.84 1537.27 1721.33 1554.27C1724.97 1557.96 1729.9 1564.6 1734.85 1566.21L1736.84 1565.62C1762.24 1546.24 1790.98 1530.34 1815.33 1509.63C1810.03 1505.61 1804.86 1501.36 1798.98 1498.21ZM1659.55 1498.21C1639.5 1512.25 1619.83 1527.05 1599.33 1540.41C1604.28 1544.46 1609.11 1547.3 1614.78 1550.21C1623.98 1548.56 1660.28 1519.15 1671.33 1512.14C1667.65 1507.3 1664.17 1502.2 1659.55 1498.21ZM1807.33 1493.58C1811.95 1496.58 1819.15 1502.75 1824.66 1503.21C1830.25 1499.23 1835.97 1495.3 1841.33 1491.04C1835.82 1486.26 1830.92 1482.53 1823.82 1480.21L1807.33 1493.58ZM1843.19 1464.21C1839.9 1467.59 1836.53 1470.93 1833.33 1474.4C1836.87 1478.03 1842.44 1485.03 1847.82 1485.2C1849.14 1485.25 1850.35 1484.7 1851.5 1484.14C1855 1481.19 1858.42 1478.09 1862.33 1475.69C1856.88 1471.77 1849.89 1465.27 1843.19 1464.21Z" fill="black"/>
</mask>
<g mask="url(#mask0_1171_9316)">
<rect x="432" y="706" width="1451" height="1060" fill="url(#paint1_linear_1171_9316)"/>
</g>
<defs>
<linearGradient id="paint0_linear_1171_9316" x1="1181" y1="2362" x2="1181" y2="0" gradientUnits="userSpaceOnUse">
<stop stop-color="#1C757B"/>
<stop offset="0.460258" stop-color="#215274"/>
<stop offset="1" stop-color="#27286B"/>
</linearGradient>
<linearGradient id="paint1_linear_1171_9316" x1="1157.5" y1="706" x2="1157.5" y2="1766" gradientUnits="userSpaceOnUse">
<stop stop-color="#E84239"/>
<stop offset="0.25" stop-color="#F7E463"/>
<stop offset="0.5" stop-color="#46FFA0"/>
<stop offset="0.75" stop-color="#F4E450"/>
<stop offset="1" stop-color="#E06337"/>
</linearGradient>
</defs>
</svg>
