<svg width="1451" height="1060" viewBox="0 0 1451 1060" fill="none" xmlns="http://www.w3.org/2000/svg">
<mask id="mask0_1175_9387" style="mask-type:alpha" maskUnits="userSpaceOnUse" x="0" y="0" width="1451" height="1060">
<path d="M679.508 4.68037C736.165 -6.22973 792.814 1.7858 843.72 30.2849C859.598 39.1727 873.039 49.9159 887.922 60.3171L916.627 88.8142C976.483 157.009 998.103 250.988 963.578 335.163C949.912 368.477 923.532 401.369 954.204 433.859C992.718 474.36 1077.41 519.582 1128.26 474.707C1146.74 458.466 1157.93 435.466 1159.3 410.884C1163.02 346.655 1109.11 287.907 1136.97 215.165C1156.99 152.978 1221.63 118.24 1284.36 136.323C1294.17 139.151 1308.71 149.11 1315.62 157.224C1341.43 187.549 1323.14 242.796 1277.98 234.368C1197.33 219.314 1255.25 314.954 1262.55 349.515C1290.61 447.487 1247.81 553.284 1151.6 593.048C1144.22 596.101 1115.06 601.996 1112.15 604.479C1134.73 609.994 1182.55 596.101 1208.8 596.918C1250.52 596.593 1291.16 618.517 1311.41 655.361C1326.09 682.083 1345.44 723.246 1336.9 754.184C1325.12 796.923 1267.17 802.079 1247.38 761.242C1237.67 741.209 1236.53 714.218 1213.96 706.087C1194.02 699.23 1167.55 709.622 1146.5 713.123L1112.74 716.702C1053.95 712.698 1008.26 685.181 960.517 651.927L956.795 652.375L955.232 654.846C956.863 659.499 968.919 674.019 970.83 678.571L971.858 680.058C986.987 701.747 1008.63 718.738 1031.37 731.836C1057.22 746.723 1089.21 752.64 1103.13 782.158C1107.64 791.71 1108.9 802.236 1107.1 812.638C1105.01 824.73 1098.44 836.172 1088.33 843.275C1073.57 853.633 1052.33 853.409 1035.32 849.998C970.539 837 897.889 777.326 862.246 723.222C854.357 711.243 846.447 697.955 840.748 684.734L837.229 689.51C843.374 714.476 849.028 739.564 864.202 760.906C880.615 784.015 906.459 797.885 926.001 817.973C954.896 847.682 977.365 902.512 953.711 941.359C947.901 950.889 940.226 955.241 929.555 957.567C916.862 960.319 903.956 959.39 892.772 952.299C872.414 939.402 869.62 912.713 854.167 895.342C841.631 881.249 822.837 872.323 807.25 862.066C759.451 830.602 738.254 775.749 727.807 721.522C727.45 719.71 727.17 717.898 726.902 716.064C713.963 775.044 694.37 831.429 641.054 865.545C625.996 875.175 608.392 882.592 596.381 896.226C573.551 922.143 574.814 966.672 523.032 955.174C519.539 954.402 516.114 953.082 512.76 951.851L495.081 933.596C469.926 878.744 515.927 818.466 558.69 788.333C604.339 756.175 610.695 714.789 620.265 663.023C616.922 671.244 613.293 679.354 609.384 687.318C597.091 712.272 580.584 739.095 560.971 759.81C527.759 794.887 481.975 828.253 436.263 844.606C416.2 851.306 388.712 855.367 369.243 845.065C348.847 834.271 339.038 808.846 346.849 787.203C357.486 757.73 387.759 749.463 412.844 736.678C453.396 716.019 484.053 681.412 505.934 642.085C467.339 678.437 407.475 711.858 354.535 715.572C316.947 718.212 281.384 699.107 244.781 703.022C216.724 706.02 214.875 748.356 201.316 766.298C178.459 799.439 123.568 790.637 115.862 750.023C110.656 713.805 129.864 671.569 151.144 643.516C206.183 570.968 278.873 609.378 348.832 602.633C319.71 600.027 289.497 588.742 265.142 572.601C234.76 552.322 211.254 523.274 197.741 489.315C171.947 426.26 179.043 372.095 201.963 312.864C217.639 272.354 233.248 220.984 173.241 236.006C154.244 240.761 130.397 227.926 126.407 205.965C118.974 165.048 152.113 139.883 188.406 133.986C217.973 128.98 248.299 136.272 272.369 154.175C293.002 169.328 303.9 185.47 313.318 208.391C346.659 289.526 285.696 346.026 294.62 421.467C297.176 443.08 311.877 466.855 329.937 479.696C349.159 493.364 373.781 496.406 397.059 491.865C431.881 485.087 481.985 456.385 502.822 426.675C525.789 395.289 503.651 370.566 490.428 340.775C427.257 198.45 532.689 32.958 679.508 4.68037ZM1299.55 185.27C1286.22 152.411 1227.33 157.491 1203.95 173.679C1143.32 215.66 1154.23 277.228 1176.94 337.469C1193.7 381.903 1196.92 437.921 1166.47 478.878C1148.91 502.447 1122.59 517.932 1093.48 521.823C1043.17 528.587 998.047 501.474 958.275 473.6C854.889 401.16 961.705 337.891 951.304 256.449C949.081 254.249 950.432 254.972 946.801 254.955C944.433 256.224 940.679 258.722 939.975 261.366C931.82 292.087 926.491 342.271 891.5 355.461C832.345 377.754 762.497 361.417 747.47 292.684C745.448 283.438 741.37 272.589 737.717 263.58C733.684 253.66 723.529 248.999 716.043 259.553C699.978 290.01 701.073 325.711 669.644 347.353C643.555 365.32 611.203 366.377 580.678 362.193C540.551 355.775 523.871 325.216 517.053 288.232C514.985 277.974 513.074 264.594 507.028 255.918C504.294 254.293 504.36 254.503 501.126 254.304C497.524 258.262 499.568 266.926 500.149 272.412C502.012 290.018 505.65 306.105 511.922 322.657C522.97 351.811 542.825 374.225 538.999 407.078C535.796 434.59 514.394 458.361 493.164 474.316C456.465 501.888 407.413 528.163 360.291 522.103C330.85 518.414 304.192 502.849 286.503 479.011C255.945 438.549 258.09 391.01 272.698 344.532C280.114 321.483 288.605 301.814 292.486 277.621C301.648 220.503 265.271 158.887 202.657 161.609C189.484 162.622 176.973 163.845 166.456 172.676C151.349 185.365 149.47 210.542 175.879 206.471C194.363 203.621 219.918 201.854 232.666 218.291C263.414 257.937 232.503 313.985 219.669 355.61C215.319 370.161 212.555 385.14 211.425 400.286C208.636 441.466 224.896 490.975 252.245 522.516C278.595 552.917 325.543 572.708 365.452 574.15C395.987 574.105 425.595 561.963 450.895 545.516C457.69 541.1 482.623 514.947 488.745 531.26C495.698 549.776 469.464 573.647 457.515 585.655C441.081 602.169 418.386 614.938 396.722 623.447C386.838 627.483 365.071 631.251 359.471 634.113C343.92 635.175 328.954 635.287 313.399 633.677C290.094 631.262 266.519 626.22 243.02 627.92C218.162 629.72 194.863 639.939 178.43 659.024C160.719 679.597 144.113 717.825 146.174 745.028C149.305 749.277 151.956 752.285 156.996 754.197C160.625 755.572 164 755.784 167.587 754.085C180.949 747.779 185.384 726.423 190.652 713.8C196.033 700.897 205.247 689.302 217.079 681.811C253.67 658.645 292.215 679.966 330.606 684.136C350.93 686.339 370.543 684.316 389.939 677.853C427.304 665.409 465.294 641.392 492.798 613.093C507.655 597.809 520.337 579.439 531.086 561.035C535.662 553.197 540.15 542.788 545.913 535.9C547.292 534.245 549.722 532.892 551.742 532.221C554.756 531.204 558.03 531.674 560.819 533.105C564.38 534.939 567.09 537.7 568.317 541.557C574.577 561.258 539.147 640.073 528.907 660.154C523.92 669.736 518.272 678.938 512.007 687.726C497.636 707.785 480.399 725.629 460.853 740.678C450.079 748.908 438.712 756.332 426.847 762.884C411.954 771.158 384.992 777.398 376.856 793.218C374.584 797.635 373.99 803.192 375.553 807.91C376.871 811.901 380.485 814.774 384.219 816.362C396.076 821.427 416.257 818.498 427.947 813.321C432.843 811.141 437.932 809.542 443.037 807.921C461.149 802.185 481.036 788.578 496.426 777.553C546.499 741.696 579.724 690.253 602.174 633.711C608.309 618.371 613.523 602.673 617.789 586.707C620.355 577.024 621.982 566.603 625.3 557.2C626.349 554.226 627.892 550.033 630.443 547.965C632.706 546.142 635.109 545.158 638.062 545.449C641.943 545.829 645.64 548.088 647.71 551.397C655.865 564.446 652.152 603.064 651.439 618.65C649.183 667.969 642.833 733.053 615.156 774.624C586.446 817.749 537.189 826.85 522.818 882.967C519.941 894.204 517.421 909.466 524.098 919.73C526.074 922.771 528.567 924.415 532.155 924.907C538.925 925.824 544.411 921.754 549.352 917.796C572.703 860.225 579.666 868.309 626.555 835.952C681.09 798.317 697.709 722.498 702.157 660.243C704.369 629.294 703.677 597.775 709.81 567.184C711.14 560.565 715.418 548.289 722.054 545.125C724.545 543.94 726.445 543.57 728.992 544.912C747.18 554.483 747.906 650.08 750.185 670.452C752.386 690.242 756.52 710.613 761.648 729.844C774.741 778.984 792.762 816.922 837.304 843.677C852.152 852.6 867.112 860.482 878.608 873.776C883.557 879.512 887.813 885.819 891.288 892.55C896.963 903.518 900.684 920.211 911.755 926.606C920.749 931.738 929.407 921.63 930.959 913.569C937.473 879.915 914.034 844.907 889.042 824.994C867.067 807.473 846.666 794.112 832.735 768.519C801.9 711.899 801.13 641.347 799.599 578.131C799.309 566.189 800.728 540.305 818.435 545.761C825.864 548.054 828.445 562.198 830.344 568.84C852.565 676.176 914.626 774.624 1021.73 812.471C1035.43 817.313 1051.28 821.171 1065.73 817.235C1083.66 812.181 1077.7 794.157 1067.09 784.854C1051.93 773.439 1032.32 767.144 1015.8 757.663C942.356 715.835 903.365 636.618 883.11 557.614C875.781 529.013 901.689 516.848 914.906 549.842C924.715 574.317 947.65 603.019 967.079 620.64C1009.33 659.259 1073.82 695.687 1133.8 684.171C1182.34 674.846 1237.08 653.725 1264.03 715.309C1269.58 728 1273.46 762.37 1293.95 758.133C1312.18 754.353 1306.91 730.739 1303.95 717.937C1295.99 688.453 1279.13 653.098 1251.33 637.814C1213.22 616.85 1170.01 634.169 1129.2 635.6C1066.01 637.825 1010.16 609.694 971.648 560.095C964.04 550.278 951.583 525.927 973.882 525.479C978.318 525.401 992.573 539.567 996.54 542.05C1024.48 560.017 1059.16 575.86 1093.08 574.083C1133.88 570.035 1175.08 549.943 1201.37 518.458C1245 466.209 1248.64 404.452 1227.73 341.771C1220.04 318.686 1208.46 290.607 1206.26 266.851C1204.79 250.935 1208.58 228.915 1219.86 217.212C1242.58 193.614 1263.01 206.255 1286.19 204.953L1287.69 204.854C1293.31 200.919 1302.14 191.931 1299.55 185.27ZM605.365 222.136C597.811 222.045 589.511 221.682 582.049 222.711C569.115 223.723 544.555 224.366 535.672 235.238C527.364 245.407 530.131 265.201 531.916 277.308C534.888 297.471 541.584 322.792 558.794 335.743C577.749 350.006 610.963 348.031 632.915 344.262C634.768 343.944 636.578 343.569 638.412 343.16C657.567 336.738 670.035 325.766 678.943 307.778C688.292 288.902 696.461 262.731 689.231 242.082C669.753 222.387 631.568 222.454 605.365 222.136ZM910.417 231.012C894.125 219.514 849.405 220.091 829.247 222.229C812.607 223.554 777.557 224.824 765.724 238.127C759.359 245.28 758.441 255.093 759.248 264.231C761.197 286.251 770.342 317.018 788.203 331.602C805.492 345.715 831.387 347.3 852.7 346.961C872.197 344.687 887.705 342.391 900.624 325.957C915.359 307.219 923.718 271.818 920.2 248.481C919.158 241.548 916.289 235.153 910.417 231.012ZM861.499 74.446C818.146 40.5287 762.366 21.6498 707.123 26.8562C706.564 26.9076 706.017 27.0057 705.457 27.0817C640.667 34.5333 585.939 67.8165 545.477 118.409C522.977 146.543 508.658 180.762 501.999 216.066C543.938 210.95 580.219 201.877 623.355 204.869C640.758 206.076 657.875 209.406 674.799 213.532C699.63 219.584 718.991 225.995 744.94 221.482C792.823 208.246 838.861 200.118 888.88 206.527C909.092 209.118 928.878 214.02 948.999 217.008C941.908 158.634 907.078 110.097 861.499 74.446Z" fill="black"/>
<path d="M805.027 399C807.312 399.115 809.53 399.472 811.703 400.235C814.925 401.374 818.09 403.923 819.316 407.188C820.586 410.557 819.929 414.267 818.636 417.514C812.361 433.287 792.433 447.069 777.308 453.49C743.002 468.066 700.894 464.836 666.985 450.929C664.844 449.673 662.68 448.409 660.659 446.962C656.503 443.985 652.082 437.6 652.001 432.314C651.96 429.655 653.11 427.521 655.19 425.897C657.808 423.855 662.288 422.806 665.551 423.196C671.624 423.922 678.054 427.884 683.748 430.116C692.427 433.518 702.221 435.252 711.46 436.087C737.742 438.461 763.454 435.148 784.319 417.959C791.218 412.268 797.058 405.55 803.957 399.87L805.027 399Z" fill="black"/>
<path d="M867.432 230C869.807 230.465 872.59 231.022 874.638 232.365C876.832 233.812 877.895 236.323 877.997 238.837C878.37 247.785 842.071 314.773 834.99 325.834C833.044 328.881 830.691 331.46 828.112 334C826.087 333.226 823.938 332.448 822.218 331.131C819.877 329.343 817.762 326.27 818.022 323.218C818.689 315.286 854.978 246.352 860.882 237.015C862.647 234.227 864.909 232.119 867.432 230Z" fill="black"/>
<path d="M832.898 230C836.998 230.112 839.376 230.111 842.487 232.952C843.043 235.225 843.165 237.054 842.765 239.344C840.476 252.407 811.952 308.193 804.34 320.465C803.073 322.495 801.451 323.655 799.528 325C798.962 324.6 798.384 324.208 797.817 323.802C794.628 321.494 791.295 318.514 791.006 314.311C790.483 306.844 826.286 236.948 832.898 230Z" fill="black"/>
<path d="M635.034 231C638.486 231.297 640.929 231.56 644.046 233.275C645.024 234.854 645.817 235.663 645.985 237.562C646.912 248.121 605.924 324.782 596.747 335C594.146 334.888 591.624 334.457 589.493 332.829C587.233 331.102 586.231 328.629 586.005 325.856C585.478 319.393 629.529 236.735 635.034 231Z" fill="black"/>
<path d="M599.826 231.038C602.965 230.936 605.362 230.982 608.42 231.939C610.552 234.343 610.986 234.797 611 238.198C611.032 246.305 575.633 319.81 567.579 328.882C565.339 329.15 563.509 329.058 561.633 327.582C559.364 325.796 558.291 323.305 558.027 320.498C556.886 308.362 591.656 241.983 599.826 231.038Z" fill="black"/>
<path d="M427.541 892.823C435.545 888.071 446.949 888.26 455.68 890.62C459.97 891.783 464.247 893.963 466.401 898.045C470.239 905.335 463.088 919.435 461.646 927.508C465.651 928.202 469.443 928.336 472.446 931.344C475.695 938.21 471.257 946.686 469.271 953.551L482.14 956.537C480.769 964.263 479.295 971.833 479.238 979.705C499.231 983.339 519.849 988.36 540.058 990.25C543.201 987.734 546.931 989.466 550.89 989.768C551.843 985.061 551.54 979.906 552.526 975.467C553.215 972.359 554.559 971.956 557.039 970.301L558.662 970.659C559.731 968.848 558.994 969.709 561.074 968.266C567.813 961.882 578.995 959.969 588.104 959.768C590.832 959.701 591.771 959.858 593.579 961.96C593.794 962.217 594.959 964.106 595.098 964.319C597.444 967.953 600.386 970.335 604.683 971.241C608.393 972.012 612.263 972.37 616.026 972.817C618.187 967.092 620.105 961.635 621.379 955.63C617.504 954.982 602.784 953.417 600.827 950.901C608.582 944.281 609.878 942.447 611.455 932.305L610.007 931.456C604.938 928.425 600.25 925.541 598.024 919.749C598.855 917.099 599.553 916.17 602.158 914.985C613.542 909.786 679.539 920.408 691.79 926.245C694.648 927.609 696.935 929.108 698.038 932.227C699.871 937.46 698.73 944.293 697.545 949.526C694.189 964.386 687.458 979.414 682.448 993.838C675.648 1013.41 670.026 1033.68 661.804 1052.7C650.984 1060.75 644.186 1060.91 631.209 1058.98C610.958 1055.98 590.849 1051.86 570.646 1048.52L457.121 1030.09C435.09 1026.3 408.298 1024.64 387.215 1018.45C383.654 1017.41 379.812 1014.42 377.723 1011.35C374.08 1005.97 374.666 997.853 376.178 991.893C381.374 971.397 400.77 939.596 411.006 919.212C414.295 912.659 416.958 904.429 421.082 898.459C422.641 896.211 425.209 894.209 427.541 892.823ZM628.575 1013C627.058 1018.09 624.497 1024.02 627.152 1029.15C627.898 1030.59 629.051 1031.23 630.404 1032C633.958 1031.95 636.636 1031.45 639.369 1029.1C642.664 1025.22 644.87 1021.6 647 1016.99C640.727 1015.98 634.597 1015.07 628.575 1013ZM594.574 1007C592.464 1012.85 591.231 1018.68 590 1024.76C598.73 1025.59 607.432 1026.67 616.096 1028C617.57 1022.37 619.063 1016.79 620 1011.04C611.603 1009.65 603.042 1007.79 594.574 1007ZM464.439 985.001C461.577 990.431 459.769 995.681 458 1001.54C483.149 1006.02 508.339 1010.27 533.57 1014.27C549.042 1016.86 564.697 1020.33 580.277 1022C582.227 1016.38 583.726 1010.88 585 1005.07C545.39 996.693 504.49 991.117 464.439 985.001ZM601.206 978.001C601.131 982.885 600.11 991.353 603.423 995.262C606.343 998.712 643.397 1004.09 648.598 1004C650.891 1003.95 651.728 1004.1 653.244 1002.07C653.539 1001.67 653.908 1000.39 654.069 999.888C655.923 995.34 657.602 990.568 660 986.278C640.561 983.041 620.894 979.345 601.206 978.001ZM425 996.492C432.687 997.975 440.258 999.48 448.078 1000C450.149 994.876 452.517 989.707 454 984.373L429.997 980.001L425 996.492ZM403.135 974.001C400.059 979.831 396.81 985.628 394 991.594C400.775 992.903 407.518 994.29 414.382 995.001C416.619 989.249 418.826 983.474 421 977.688C415.063 976.504 408.999 975.501 403.135 974.001ZM570.818 975.001C569.54 979.36 567.982 983.753 569.896 988.191C571.292 991.432 574.085 993.148 577.35 994.029C580.669 994.921 584.461 994.967 587.888 995.001C589.029 989.027 589.607 983.255 590 977.191C583.509 976.83 577.238 976.017 570.818 975.001ZM628.371 956.001C627.266 961.725 626.239 967.471 625 973.163C631.565 974.089 657.659 979.416 661.862 977.64C663.869 972.655 665.71 967.504 668 962.651C655.134 959.938 641.474 957.093 628.371 956.001ZM407 966.799C426.599 970.37 446.568 974.232 466.428 976.001C469.494 972.883 473.745 969.129 473.986 964.512C474.067 962.927 473.832 963.272 472.582 961.891C454.617 956.778 433.514 953.629 414.814 952.001L407 966.799ZM651.145 935.001C649.528 940.702 648.156 946.36 647 952.171C653.246 953.164 665.443 956.582 671.171 954.134C673.153 950.01 675.968 945.532 676 940.889C674.632 938.474 674.35 937.713 671.419 936.93C665.686 935.408 657.248 935.64 651.145 935.001ZM425.785 928.001C423.119 933.509 420.524 939.053 418 944.629C432.359 947.821 447.072 949.366 461.322 953.001C464.352 947.753 465.507 941.835 467 935.974C453.29 933.123 439.604 930.238 425.785 928.001ZM620.76 930.001C619.057 935.237 616.589 940.31 619.014 945.644C624.337 950.282 633.545 949.966 640.374 951.001C642.16 945.285 643.252 939.939 644 934.017C636.285 932.515 628.536 931.176 620.76 930.001ZM437.912 905.001C433.581 910.132 430.793 915.793 428 921.847C435.217 923.198 442.425 924.583 449.625 926.001C453.171 921.33 454.375 914.206 456 908.613C449.859 906.812 444.327 905.53 437.912 905.001Z" fill="black"/>
<path d="M984.551 896.65C994.025 891.913 1006.15 887.677 1016.65 891.456C1032.68 897.218 1039.94 924.583 1048.41 938.192L1059.47 960.117L1060.2 962.156C1065.42 976.345 1081.26 992.953 1074.23 1008.84C1072.71 1012.26 1070.03 1015.33 1067.35 1017.92C1044.59 1023.24 1021.41 1026.11 998.36 1029.86L884.624 1048.24C861.564 1051.8 835.23 1059.13 812.293 1059.98C806.383 1060.2 800.126 1058.92 795.154 1055.61C791.456 1053.14 789.232 1049.31 787.31 1045.41C777.702 1025.81 772.552 1002.13 766.105 981.205C762.899 970.772 758.329 960.183 756.542 949.416C755.268 941.714 756.218 937.266 759.67 930.367C771.033 924.894 837.587 912.857 848.458 916.111C850.033 916.579 851.15 917.449 852.368 918.497C853.172 921.127 852.96 922.342 851.709 924.828C849.407 929.386 844.782 930.613 840.324 932.262C841.196 937.579 841.967 942.896 843.33 948.112C847.709 947.867 851.542 947.376 855.686 949.092L855.598 950.531C847.587 954.321 838.95 955.089 830.492 957.363C831.933 962.412 833.196 967.629 835.051 972.533C841.844 972.6 849.028 972.656 855.039 969.123C858.673 967.793 858.674 967.793 863.174 966.793C872.173 966.293 874.948 964.646 883.674 965.293L886.015 965.59H887.383C889.003 965.199 888.11 965.361 889.674 964.793C894.556 972.015 889.015 982.656 895.674 990.793C896.174 991.793 895.148 992.412 897.416 991.854L904.689 991.426C923.191 990.925 956.212 982.641 974.188 977.96L973.943 976.689V974.623C972.457 970.465 971.802 973.124 972.674 970.293C973.534 967.518 970.394 968.049 970.674 964.293L967.513 954.276C970.395 953.017 973.702 954.142 976.674 954.688C977.78 954.655 979.109 954.075 980.171 953.741C981.735 947.365 975.758 940.577 976.92 933.265C979.009 930.401 979.925 930.523 983.232 929.52C981.59 918.642 978.786 907.44 982.629 896.806L984.551 896.65ZM820.656 1015.23C814.79 1016.16 808.799 1016.9 803.001 1018.18C806.193 1023.11 809.206 1028.48 812.996 1033L828.001 1031.45C827.031 1026.61 826.489 1018.2 822.811 1015L820.656 1015.23ZM856.935 1008.55C855.075 1007.95 854.109 1007.85 852.191 1008.2C845.415 1008.97 838.662 1009.65 832.001 1011.12C833.207 1016.54 834.01 1021.93 837.077 1026.7C838.536 1027.51 839.11 1027.88 840.833 1028C847.552 1026.8 854.19 1025.69 861.001 1025.03C860.082 1019.95 859.979 1012.86 856.935 1008.55ZM982.157 987C943 991.166 903.62 998.678 865.001 1006.4C866.154 1012.28 866.892 1018.12 869.971 1023.32C872.623 1024.15 871.404 1024.13 873.608 1023.74C912.619 1016.88 952.191 1011.36 991.001 1003.48C989.053 998.098 987.429 992.202 984.284 987.422L982.157 987ZM849.383 979.719C847.364 978.937 846.433 978.827 844.302 979.223C827.568 982.209 810.633 984.777 794.001 988.204C795.111 992.215 796.872 1002.58 800.326 1005.18C800.797 1005.55 801.38 1005.72 801.907 1006C817.654 1003.23 833.535 1000.94 849.248 998.055C850.347 992.105 852.501 985.317 849.383 979.719ZM1015.67 980C1008.15 981.522 1001.15 983.158 994.001 986.045C995.848 991.006 997.364 996.273 1000.69 1000.42C1003.33 1001.12 1002.13 1001.12 1004.29 1000.76C1011.22 999.69 1018.2 998.788 1025 997.051C1022.95 992.089 1020.59 983.034 1016.58 980.011L1015.67 980ZM878.205 976C872.279 976.993 866.758 978.167 861.001 979.996C862.361 985.707 863.171 991.237 866.803 996C871.919 995.469 875.214 995.345 878.711 991.101C881.376 987.862 883.254 984.657 882.973 980.323C882.838 978.303 881.702 977.795 880.387 976.418L878.205 976ZM1028 979.636C1030.29 984.36 1033.33 993.665 1038.32 996L1057 993.068C1054.33 987.726 1051.02 978.485 1045.96 975L1028 979.636ZM784.001 963.922C785.962 969.225 787.69 976.544 791.025 981C803.002 978.686 814.891 976.682 827.001 975.17L822.402 958.882L820.763 958L784.001 963.922ZM1020.71 924C1007.94 929.463 995.295 934.313 981.976 938.339C984.582 944.805 986.841 951.395 990.9 957.115C991.224 957.572 991.538 958.029 991.851 958.486L977.001 962.913C979.17 967.93 980.948 973.327 984.795 977.319C986.964 978.178 987.211 978.143 989.492 977.664C1007.08 974.14 1025.98 972.089 1043 966.603C1038.78 958.196 1026.2 929.285 1020.71 924ZM800.751 937C791.797 937.505 782.877 938.976 774.001 940.188C775.576 944.948 777.117 953.043 782.128 955.165C787.799 957.567 797.425 954.009 803.724 954.166C804.98 951.056 801.599 940.996 800.751 937ZM831.708 933C823.422 933.707 815.169 934.836 806.916 935.886L811.674 952.293L834.001 948.04L831.708 933ZM1012.44 906.55C1010.32 905.963 1009.71 905.853 1007.43 906.185L995.001 909.487C996.439 914.904 996.926 920.388 1001.56 924C1003.85 923.922 1005.93 923.679 1008.18 923.236L1020 919.58C1017.92 914.971 1016.26 910.029 1012.44 906.55Z" fill="black"/>
<path d="M88.2084 711C90.9853 711.134 93.6129 711.503 96.0063 713.079C98.3526 714.622 98.272 715.539 98.434 718.065C93.9837 726.361 79.9619 732.645 71.9711 737.452C78.0916 741.801 93.8672 750.567 96.5112 757.409C97.1103 758.963 96.149 760.126 95.5688 761.557C87.7043 760.204 71.2851 746.519 64.0278 741.443L44.6743 753.943C58.0476 762.194 69.7077 772.949 83.0385 781.346C86.9399 778.506 91.2701 775.711 96.1899 775.499L97.5385 776.784C97.8381 780.876 95.7958 784.578 94.2241 788.256C96.6338 792.092 152.251 830.819 159.709 835.235C160.491 834.945 161.235 834.654 162.052 834.464C167.247 833.256 173.338 838.275 178.053 840.892L190.845 832.339C183.389 823.272 173.392 818.364 164.946 810.649C162.96 808.838 162.551 807.486 162.593 804.903C173.366 799.962 180.749 815.882 190.175 817.995C192.273 818.465 195.218 815.86 197.003 814.753C200.003 814.719 200.767 814.194 203.312 815.96C203.917 819.582 202.258 823.529 201.219 827.006C206.782 829.689 211.613 832.664 216.661 836.186L229.199 824.278C222.115 819.918 214.855 815.692 207.902 811.142C204.71 809.04 203.39 807.686 202.643 803.952C204.653 797.915 214.12 791.14 215.064 786.947C216.382 781.089 213.441 775.812 218.405 770.848C225.301 769.741 240.724 783.18 246.553 787.216C261.743 798.094 289.514 813.68 301.539 826.09C304.364 829.008 306.177 831.691 305.986 835.973C305.778 840.635 303.844 844.828 300.416 847.98C285.531 861.676 265.642 872.354 248.713 883.567C235.631 892.232 222.749 902.216 208.953 909.662C204.138 912.267 195.331 916.873 189.914 915.855C184.373 914.816 176.755 909.483 172.044 906.386C141.44 886.205 112.166 863.331 82.3998 841.898C66.5066 830.439 12.4109 794.427 3.1098 782.722C-0.438404 778.272 -0.325303 772.871 0.42816 767.538C6.87828 756.872 74.27 717.697 88.2084 711ZM193.357 867.004C192.962 867.013 192.511 867.065 191.97 867.166C187.719 871.246 183.54 875.427 179 879.195C182.905 882.041 189.057 887.833 194.207 886.899C196.178 886.544 198.079 885.132 199.723 884.087L210 879.317C209.985 879.304 209.969 879.289 209.954 879.275L210 879.255C205.93 875.704 201.826 871.711 197.32 868.735C195.568 867.579 194.888 866.96 193.357 867.004ZM171.566 851C166.162 854.607 162.037 858.455 158 863.666C162.465 867.926 166.849 872.702 172.013 876C176.598 871.087 181.261 866.266 186 861.524L171.566 851ZM186 847.638C193.975 853.237 213.08 870.95 221.055 872L222.983 870.826L238 861.117C228.505 854.174 209.181 837.523 198.943 834L186 847.638ZM82.2563 792C77.1679 794.915 72.6336 798.045 68.0004 801.613C82.2777 812.915 97.4451 823.181 112.279 833.729C124.288 842.272 136.9 852.606 150.187 859L163 846.189C154.833 839.571 89.6188 792.204 82.2563 792ZM234.821 828C230.897 831.971 226.994 835.754 224 840.502C231.014 845.816 238.932 852.539 246.99 856C248.506 855.445 249.012 855.612 249.852 854.17C253.89 850.398 257.988 848.733 263 846.637C253.906 840.38 244.66 832.97 234.821 828ZM254 832.271C258.123 835.344 263.901 840.979 268.938 842L269.914 841.767C274.318 838.905 278.898 836.153 283 832.881C277.689 828.909 271.932 823.773 265.914 821L254 832.271ZM233 817.392C236.519 819.968 245.455 828.331 249.351 829C253.52 825.142 257.658 821.272 262 817.618C256.395 813.283 250.814 808.983 244.955 805L233 817.392ZM224.848 790C220.151 793.803 216.007 797.492 212 802.107C217.31 806.429 222.441 810.615 228.361 814C231.876 809.87 235.315 805.616 239 801.645C234.42 797.447 230.003 793.419 224.848 790ZM56.4223 773C51.7891 776.514 47.2665 780.006 43.0004 783.979C48.3522 787.997 54.4017 793.571 60.5619 796C65.0332 792.654 69.6944 789.441 74.0004 785.882C69.161 781.573 62.6479 774.936 56.4223 773ZM37.2114 757C31.8103 760.566 26.4386 764.199 21.0004 767.697C25.375 771.24 29.7102 775.244 34.5912 778C40.4203 774.603 45.0525 770.655 50.0004 766.055C45.8474 762.658 41.991 759.441 37.2114 757Z" fill="black"/>
<path d="M1358.98 711.419C1361.37 710.704 1363.17 710.928 1365.38 711.911C1375.2 716.291 1448.28 758.847 1450.33 765.941C1452.06 771.941 1450.19 777.963 1447.64 783.392L1432.5 795.091C1395.33 821.491 1358.88 848.898 1321.85 875.511C1304.77 887.778 1287.38 901.71 1269.15 912.1C1265.28 914.313 1261.02 915.143 1256.69 915.988L1256.63 916C1252.56 914.782 1248.48 913.374 1244.76 911.308C1228.23 902.124 1212.53 890.046 1196.8 879.499C1183.15 870.337 1168.45 861.958 1155.48 851.892C1152.2 849.344 1147.6 845.68 1145.92 841.814C1144.9 839.446 1144.66 838.663 1145.54 836.295C1147.08 832.139 1150.34 828.698 1153.53 825.715C1163.64 816.24 1219.72 776.51 1231.71 770.946C1234.4 771.248 1234.23 771.639 1236.11 773.404C1237.63 778.186 1236.13 783.069 1236.03 788.007C1239.72 793.693 1245.84 797.961 1250.98 802.308C1242.87 811.413 1231.64 818.14 1221.72 825.078C1225.92 829.089 1230.61 832.675 1235.07 836.373C1238.67 833.781 1248.63 828.206 1250.13 824.027C1251.38 820.541 1249.1 818.877 1252.37 816.006C1256.39 816.218 1259.02 817.961 1262.45 819.961C1267.47 815.604 1272.97 809.626 1279.75 808.587C1281.77 809.402 1282.69 809.973 1284.08 811.671C1278.44 818.81 1269.15 824.105 1261.92 829.613C1265.25 833.479 1268.97 837.088 1272.5 840.775C1274.02 839.859 1275.59 838.998 1277.1 838.049C1283.47 834.083 1290.03 835.2 1296.67 831.457C1311.25 823.256 1343.01 799.123 1356.27 787.604C1355.88 783.046 1355.53 780.689 1358.38 776.879C1362.56 775.516 1364.52 777.661 1368.7 778.32C1372.93 778.978 1401.25 756.513 1407.01 752.322C1400.08 748.646 1393.11 745.06 1386.11 741.529C1378.27 746.534 1371.37 753.059 1363.51 757.919C1361.19 759.349 1358.46 761.505 1355.72 760.88L1355.64 757.852C1359.92 748.814 1372.01 743.261 1380.07 737.685C1372.92 732.502 1363.81 729.585 1357.21 723.686C1354.61 721.351 1353.59 719.463 1353.33 716.033C1354.88 713.665 1356.15 712.268 1358.98 711.419ZM1257.69 867C1251.87 871.378 1246.13 875.928 1240 879.849C1246.27 883.266 1252.63 887.199 1259.19 890C1264.07 887.165 1268.5 883.953 1273 880.569C1268.16 875.871 1263.43 870.589 1257.69 867ZM1265 861.473C1268.93 865.539 1275.37 873.958 1281.12 875L1295 863.777C1289.93 859.7 1284.81 854.803 1278.87 852L1265 861.473ZM1238.93 844.143L1227.66 852.087C1224.28 854.312 1219.51 856.759 1216.93 859.874C1215.61 861.475 1216.03 860.63 1216.19 863.133C1220.85 866.781 1226.1 870.408 1231.42 873C1243.49 866.07 1253.71 856.147 1265.57 848.761L1267 847.871C1261.68 843.777 1256.64 839.427 1251.59 835L1238.93 844.143ZM1215.85 829C1207.23 835.527 1198.47 841.928 1190 848.661L1204.84 859C1211.09 853.625 1218.77 845.843 1226.36 842.785L1228 840.228L1226.99 837.639C1223.15 834.888 1219.44 832.081 1215.85 829ZM1366.65 791C1344.42 805.462 1308.51 830.065 1289 847.067C1292.64 850.755 1297.58 857.395 1302.52 859L1304.51 858.409C1329.91 839.033 1358.65 823.134 1383 802.421C1377.71 798.399 1372.54 794.153 1366.65 791ZM1227.22 791C1207.17 805.043 1187.51 819.838 1167 833.206C1171.96 837.256 1176.79 840.09 1182.45 843C1191.65 841.351 1227.96 811.938 1239 804.933C1235.32 800.097 1231.85 794.995 1227.22 791ZM1375 786.371C1379.62 789.37 1386.82 795.545 1392.33 796C1397.93 792.024 1403.65 788.093 1409 783.828C1403.5 779.053 1398.6 775.321 1391.5 773L1375 786.371ZM1410.86 757C1407.57 760.385 1404.21 763.725 1401 767.19C1404.55 770.827 1410.11 777.825 1415.49 777.997C1416.81 778.043 1418.02 777.494 1419.17 776.934C1422.67 773.983 1426.09 770.884 1430 768.482C1424.56 764.56 1417.57 758.063 1410.86 757Z" fill="black"/>
</mask>
<g mask="url(#mask0_1175_9387)">
<rect x="-0.327148" y="-1.20703" width="1451" height="1060" fill="url(#paint0_linear_1175_9387)"/>
</g>
<defs>
<linearGradient id="paint0_linear_1175_9387" x1="725.173" y1="-1.20703" x2="725.173" y2="1058.79" gradientUnits="userSpaceOnUse">
<stop stop-color="#E84239"/>
<stop offset="0.25" stop-color="#F7E463"/>
<stop offset="0.5" stop-color="#46FFA0"/>
<stop offset="0.75" stop-color="#F4E450"/>
<stop offset="1" stop-color="#E06337"/>
</linearGradient>
</defs>
</svg>
