<svg width="2362" height="2362" viewBox="0 0 2362 2362" fill="none" xmlns="http://www.w3.org/2000/svg">
<rect width="2362" height="2362" fill="url(#paint0_linear_20_143)"/>
<mask id="mask0_20_143" style="mask-type:alpha" maskUnits="userSpaceOnUse" x="452" y="610" width="1458" height="1141">
<path d="M1124.51 615.682C1191.9 602.704 1259.29 612.238 1319.84 646.139C1338.73 656.712 1354.72 669.492 1372.42 681.865L1406.57 715.763C1477.77 796.884 1503.49 908.676 1462.42 1008.81C1446.16 1048.43 1414.78 1087.56 1451.27 1126.21C1497.08 1174.39 1597.83 1228.18 1658.32 1174.8C1680.3 1155.48 1693.61 1128.12 1695.24 1098.88C1699.67 1022.48 1635.54 952.592 1668.67 866.062C1692.49 792.088 1769.38 750.766 1844 772.277C1855.67 775.641 1872.97 787.488 1881.19 797.14C1911.89 833.212 1890.13 898.93 1836.41 888.905C1740.47 870.997 1809.37 984.766 1818.05 1025.88C1851.44 1142.42 1800.52 1268.27 1686.08 1315.57C1677.3 1319.2 1642.61 1326.21 1639.15 1329.17C1666.01 1335.73 1722.9 1319.2 1754.12 1320.17C1803.75 1319.79 1852.09 1345.87 1876.18 1389.69C1893.64 1421.48 1916.66 1470.45 1906.51 1507.25C1892.49 1558.09 1823.56 1564.22 1800.02 1515.64C1788.47 1491.81 1787.11 1459.71 1760.26 1450.04C1736.54 1441.88 1705.05 1454.24 1680.01 1458.4L1639.86 1462.66C1569.92 1457.9 1515.57 1425.17 1458.78 1385.61L1454.35 1386.14L1452.49 1389.08C1454.43 1394.62 1468.77 1411.89 1471.05 1417.3L1472.27 1419.07C1490.26 1444.87 1516.01 1465.08 1543.06 1480.66C1573.81 1498.37 1611.87 1505.41 1628.43 1540.53C1633.78 1551.89 1635.29 1564.41 1633.15 1576.78C1630.66 1591.17 1622.84 1604.78 1610.82 1613.23C1593.26 1625.55 1567.99 1625.28 1547.76 1621.22C1470.7 1605.76 1384.28 1534.78 1341.88 1470.42C1332.5 1456.17 1323.09 1440.36 1316.31 1424.64L1312.12 1430.32C1319.43 1460.01 1326.16 1489.86 1344.21 1515.25C1363.73 1542.73 1394.47 1559.23 1417.72 1583.13C1452.09 1618.47 1478.82 1683.69 1450.68 1729.9C1443.77 1741.24 1434.64 1746.41 1421.95 1749.18C1406.85 1752.45 1391.5 1751.35 1378.19 1742.91C1353.98 1727.57 1350.65 1695.83 1332.27 1675.16C1317.36 1658.4 1295 1647.78 1276.46 1635.58C1219.6 1598.15 1194.39 1532.9 1181.96 1468.4C1181.53 1466.24 1181.2 1464.09 1180.88 1461.9C1165.49 1532.06 1142.19 1599.14 1078.76 1639.72C1060.85 1651.17 1039.91 1660 1025.62 1676.21C998.464 1707.04 999.968 1760.01 938.371 1746.33C934.216 1745.42 930.142 1743.85 926.152 1742.38L905.122 1720.67C875.199 1655.42 929.918 1583.72 980.787 1547.87C1035.09 1509.62 1042.65 1460.39 1054.03 1398.81C1050.06 1408.59 1045.74 1418.24 1041.09 1427.71C1026.47 1457.39 1006.83 1489.3 983.501 1513.94C943.994 1555.67 889.532 1595.36 835.156 1614.81C811.29 1622.78 778.592 1627.61 755.432 1615.35C731.17 1602.52 719.502 1572.27 728.793 1546.53C741.447 1511.47 777.457 1501.63 807.297 1486.43C855.535 1461.85 892.004 1420.68 918.033 1373.9C872.122 1417.14 800.91 1456.9 737.935 1461.32C693.223 1464.46 650.92 1441.73 607.379 1446.39C574.005 1449.96 571.805 1500.32 555.676 1521.66C528.488 1561.08 463.192 1550.61 454.025 1502.3C447.832 1459.22 470.681 1408.97 495.995 1375.6C561.466 1289.31 647.933 1335 731.153 1326.97C696.511 1323.87 660.571 1310.45 631.6 1291.25C595.46 1267.13 567.498 1232.57 551.423 1192.18C520.74 1117.17 529.181 1052.74 556.446 982.28C575.092 934.091 593.659 872.984 522.279 890.853C499.681 896.51 471.314 881.242 466.568 855.119C457.726 806.446 497.147 776.511 540.318 769.497C575.489 763.541 611.564 772.216 640.196 793.513C664.741 811.538 677.704 830.739 688.907 858.004C728.568 954.518 656.05 1021.73 666.665 1111.47C669.706 1137.18 687.194 1165.46 708.676 1180.73C731.541 1196.99 760.831 1200.61 788.521 1195.21C829.943 1187.15 889.544 1153 914.33 1117.66C941.651 1080.33 915.315 1050.92 899.586 1015.48C824.442 846.179 949.858 649.32 1124.51 615.682ZM1272.54 1085.78C1264.34 1092.53 1257.39 1100.53 1249.18 1107.3C1224.36 1127.74 1193.78 1131.68 1162.51 1128.86C1151.52 1127.87 1139.87 1125.8 1129.55 1121.76C1122.78 1119.1 1115.13 1114.39 1107.9 1113.52C1104.02 1113.06 1098.69 1114.31 1095.58 1116.74C1093.1 1118.67 1091.74 1121.21 1091.79 1124.37C1091.88 1130.66 1097.14 1138.25 1102.08 1141.8C1104.49 1143.52 1107.06 1145.02 1109.61 1146.51C1149.95 1163.06 1200.03 1166.9 1240.84 1149.56C1258.83 1141.92 1282.54 1125.53 1290 1106.77C1291.54 1102.9 1292.32 1098.49 1290.81 1094.48C1289.35 1090.6 1285.59 1087.57 1281.76 1086.21C1279.17 1085.3 1276.53 1084.88 1273.82 1084.74L1272.54 1085.78ZM1036.31 874.355C1027.32 874.246 1017.45 873.815 1008.57 875.039C993.189 876.243 963.973 877.008 953.407 889.941C943.524 902.037 946.815 925.583 948.939 939.985C952.473 963.969 960.439 994.09 980.912 1009.5C1003.46 1026.46 1042.97 1024.11 1069.08 1019.63C1071.29 1019.25 1073.44 1018.8 1075.62 1018.32C1098.41 1010.68 1113.24 997.627 1123.83 976.23C1134.95 953.776 1144.67 922.645 1136.07 898.081C1112.9 874.653 1067.48 874.732 1036.31 874.355ZM1399.18 884.914C1379.8 871.235 1326.61 871.923 1302.63 874.466C1282.83 876.042 1241.14 877.553 1227.06 893.377C1219.49 901.887 1218.4 913.558 1219.36 924.428C1221.68 950.622 1232.56 987.221 1253.8 1004.57C1274.37 1021.36 1305.17 1023.24 1330.52 1022.84C1353.72 1020.14 1372.16 1017.4 1387.53 997.854C1405.06 975.565 1415 933.454 1410.82 905.694C1409.58 897.446 1406.17 889.839 1399.18 884.914Z" fill="black"/>
<path d="M1348.05 883.71C1350.88 884.263 1354.19 884.926 1356.62 886.524C1359.23 888.245 1360.5 891.231 1360.62 894.222C1361.06 904.867 1317.88 984.551 1309.46 997.709C1307.14 1001.33 1304.34 1004.4 1301.28 1007.42C1298.87 1006.5 1296.31 1005.58 1294.27 1004.01C1291.48 1001.88 1288.96 998.227 1289.27 994.597C1290.07 985.162 1333.23 903.161 1340.26 892.054C1342.36 888.738 1345.05 886.231 1348.05 883.71Z" fill="black"/>
<path d="M1306.97 883.71C1311.85 883.844 1314.68 883.843 1318.38 887.222C1319.04 889.926 1319.18 892.101 1318.71 894.825C1315.98 910.364 1282.05 976.724 1273 991.322C1271.49 993.737 1269.56 995.116 1267.28 996.717C1266.6 996.241 1265.91 995.775 1265.24 995.291C1261.45 992.546 1257.48 989.001 1257.14 984.001C1256.52 975.12 1299.1 891.975 1306.97 883.71Z" fill="black"/>
<path d="M1071.6 884.9C1075.71 885.252 1078.61 885.565 1082.32 887.606C1083.49 889.484 1084.43 890.447 1084.63 892.706C1085.73 905.265 1036.98 996.457 1026.06 1008.61C1022.96 1008.48 1019.96 1007.97 1017.43 1006.03C1014.74 1003.98 1013.55 1001.03 1013.28 997.735C1012.65 990.047 1065.05 891.722 1071.6 884.9Z" fill="black"/>
<path d="M1029.72 884.944C1033.45 884.823 1036.31 884.878 1039.94 886.017C1042.48 888.877 1043 889.416 1043.01 893.462C1043.05 903.105 1000.94 990.543 991.361 1001.33C988.697 1001.65 986.52 1001.54 984.289 999.788C981.59 997.663 980.313 994.7 980 991.361C978.642 976.925 1020 897.964 1029.72 884.944Z" fill="black"/>
</mask>
<g mask="url(#mask0_20_143)">
<rect x="452.999" y="608.924" width="1456" height="1141.96" fill="url(#paint1_linear_20_143)"/>
</g>
<defs>
<linearGradient id="paint0_linear_20_143" x1="1181" y1="2362" x2="1181" y2="0" gradientUnits="userSpaceOnUse">
<stop stop-color="#1C757B"/>
<stop offset="0.460258" stop-color="#215274"/>
<stop offset="1" stop-color="#27286B"/>
</linearGradient>
<linearGradient id="paint1_linear_20_143" x1="1181" y1="608.924" x2="1181" y2="1750.89" gradientUnits="userSpaceOnUse">
<stop stop-color="#E84239"/>
<stop offset="0.0001" stop-color="#F7E463"/>
<stop offset="0.5" stop-color="#F46817"/>
<stop offset="0.9999" stop-color="#F4E450"/>
<stop offset="1" stop-color="#E84239"/>
</linearGradient>
</defs>
</svg>
