<svg width="1451" height="1060" viewBox="0 0 1451 1060" fill="none" xmlns="http://www.w3.org/2000/svg">
<mask id="mask0_14_73" style="mask-type:alpha" maskUnits="userSpaceOnUse" x="0" y="0" width="1452" height="1061">
<path d="M679.509 4.68077C736.166 -6.2293 792.815 1.78534 843.721 30.2843C859.598 39.1721 873.04 49.9163 887.923 60.3175L916.628 88.8146C976.484 157.009 998.104 250.988 963.578 335.163C949.913 368.478 923.533 401.369 954.204 433.859C992.719 474.36 1077.41 519.583 1128.26 474.707C1146.74 458.466 1157.93 435.467 1159.3 410.885C1163.02 346.655 1109.11 287.908 1136.97 215.165C1156.99 152.978 1221.63 118.24 1284.36 136.323C1294.17 139.151 1308.71 149.111 1315.62 157.225C1341.43 187.549 1323.14 242.796 1277.98 234.368C1197.33 219.314 1255.25 314.954 1262.55 349.516C1290.61 447.487 1247.81 553.284 1151.6 593.048C1144.22 596.102 1115.06 601.996 1112.15 604.48C1134.73 609.994 1182.56 596.102 1208.8 596.918C1250.52 596.594 1291.16 618.517 1311.41 655.361C1326.09 682.083 1345.44 723.245 1336.91 754.184C1325.12 796.923 1267.17 802.079 1247.38 761.242C1237.67 741.209 1236.53 714.219 1213.96 706.087C1194.02 699.23 1167.55 709.621 1146.5 713.122L1112.74 716.702C1053.95 712.698 1008.26 685.182 960.517 651.928L956.796 652.375L955.232 654.847C956.864 659.5 968.919 674.019 970.83 678.571L971.857 680.059C986.986 701.747 1008.63 718.738 1031.37 731.836C1057.22 746.724 1089.21 752.64 1103.13 782.158C1107.64 791.711 1108.9 802.236 1107.1 812.639C1105.01 824.73 1098.44 836.173 1088.33 843.275C1073.57 853.633 1052.33 853.409 1035.32 849.997C970.54 837 897.889 777.326 862.246 723.223C854.358 711.243 846.447 697.955 840.749 684.734L837.229 689.51C843.375 714.476 849.028 739.565 864.202 760.906C880.616 784.015 906.46 797.885 926.002 817.974C954.896 847.682 977.366 902.513 953.712 941.359C947.902 950.889 940.226 955.24 929.556 957.567C916.863 960.318 903.957 959.39 892.772 952.299C872.414 939.402 869.621 912.714 854.168 895.343C841.631 881.249 822.838 872.323 807.251 862.067C759.451 830.602 738.255 775.749 727.807 721.523C727.45 719.711 727.17 717.899 726.902 716.065C713.963 775.045 694.371 831.43 641.055 865.545C625.996 875.175 608.392 882.592 596.382 896.227C573.551 922.143 574.814 966.671 523.032 955.173C519.539 954.401 516.115 953.082 512.761 951.852L495.081 933.597C469.926 878.744 515.927 818.466 558.69 788.333C604.339 756.175 610.695 714.789 620.265 663.024C616.922 671.245 613.293 679.355 609.385 687.318C597.092 712.273 580.584 739.095 560.972 759.81C527.76 794.887 481.975 828.254 436.264 844.607C416.201 851.307 388.713 855.366 369.243 845.065C348.847 834.271 339.038 808.847 346.849 787.203C357.487 757.73 387.759 749.464 412.845 736.679C453.396 716.019 484.054 681.412 505.934 642.084C467.339 678.436 407.476 711.859 354.535 715.572C316.948 718.212 281.384 699.108 244.781 703.023C216.725 706.02 214.875 748.357 201.316 766.298C178.46 799.44 123.568 790.636 115.862 750.023C110.657 713.805 129.865 671.569 151.144 643.517C206.184 570.969 278.874 609.379 348.833 602.634C319.71 600.028 289.497 588.741 265.142 572.601C234.761 552.322 211.254 523.274 197.741 489.316C171.947 426.26 179.044 372.095 201.964 312.864C217.639 272.354 233.248 220.983 173.241 236.005C154.244 240.761 130.396 227.926 126.406 205.965C118.974 165.048 152.114 139.883 188.406 133.986C217.973 128.98 248.298 136.273 272.368 154.176C293.002 169.329 303.9 185.47 313.318 208.391C346.66 289.526 285.697 346.025 294.62 421.467C297.176 443.079 311.878 466.855 329.937 479.695C349.159 493.364 373.782 496.407 397.059 491.865C431.881 485.087 481.985 456.385 502.821 426.675C525.789 395.289 503.65 370.566 490.428 340.775C427.256 198.45 532.69 32.9584 679.509 4.68077ZM803.958 399.87C797.059 405.551 791.218 412.268 784.319 417.959C763.455 435.148 737.742 438.461 711.461 436.087C702.221 435.252 692.428 433.518 683.749 430.116C678.055 427.884 671.625 423.922 665.552 423.196C662.289 422.806 657.808 423.854 655.19 425.897C653.111 427.521 651.961 429.655 652.002 432.315C652.083 437.6 656.503 443.985 660.659 446.962C662.68 448.409 664.844 449.672 666.985 450.929C700.894 464.835 743.003 468.066 777.308 453.49C792.433 447.07 812.362 433.287 818.637 417.515C819.929 414.268 820.587 410.558 819.316 407.189C818.09 403.923 814.925 401.375 811.704 400.235C809.531 399.472 807.313 399.115 805.028 399L803.958 399.87ZM605.365 222.136C597.811 222.045 589.512 221.682 582.05 222.71C569.116 223.723 544.555 224.367 535.673 235.238C527.364 245.407 530.131 265.201 531.917 277.309C534.888 297.471 541.584 322.793 558.795 335.743C577.749 350.006 610.962 348.031 632.915 344.263C634.768 343.945 636.578 343.57 638.412 343.16C657.567 336.739 670.034 325.766 678.942 307.778C688.292 288.903 696.461 262.732 689.231 242.082C669.753 222.387 631.568 222.453 605.365 222.136ZM910.418 231.013C894.125 219.514 849.405 220.092 829.247 222.23C812.607 223.554 777.557 224.824 765.724 238.127C759.36 245.281 758.441 255.092 759.248 264.231C761.198 286.25 770.341 317.018 788.202 331.603C805.492 345.716 831.388 347.301 852.7 346.961C872.197 344.688 887.705 342.391 900.625 325.957C915.36 307.22 923.718 271.818 920.2 248.482C919.158 241.548 916.289 235.153 910.418 231.013Z" fill="black"/>
<path d="M867.432 230C869.808 230.465 872.591 231.023 874.638 232.366C876.832 233.813 877.896 236.323 877.998 238.837C878.371 247.786 842.071 314.774 834.99 325.835C833.044 328.882 830.691 331.46 828.112 334C826.088 333.226 823.938 332.448 822.219 331.132C819.877 329.343 817.762 326.27 818.022 323.219C818.69 315.287 854.978 246.352 860.883 237.015C862.647 234.228 864.91 232.12 867.432 230Z" fill="black"/>
<path d="M832.898 230C836.998 230.113 839.376 230.112 842.488 232.953C843.043 235.226 843.165 237.055 842.765 239.344C840.476 252.407 811.952 308.194 804.34 320.466C803.074 322.496 801.451 323.655 799.529 325C798.962 324.601 798.384 324.209 797.818 323.802C794.629 321.495 791.295 318.514 791.006 314.311C790.484 306.845 826.286 236.949 832.898 230Z" fill="black"/>
<path d="M635.034 231C638.487 231.297 640.93 231.56 644.047 233.276C645.025 234.855 645.818 235.664 645.985 237.563C646.913 248.121 605.925 324.782 596.747 335C594.146 334.889 591.625 334.458 589.494 332.829C587.233 331.103 586.232 328.63 586.005 325.857C585.478 319.394 629.529 236.736 635.034 231Z" fill="black"/>
<path d="M599.826 231.038C602.965 230.936 605.362 230.982 608.42 231.94C610.553 234.344 610.986 234.798 611 238.198C611.033 246.305 575.633 319.811 567.579 328.882C565.339 329.15 563.509 329.059 561.634 327.582C559.365 325.796 558.292 323.305 558.028 320.498C556.887 308.362 591.656 241.984 599.826 231.038Z" fill="black"/>
<path d="M427.542 892.823C435.546 888.071 446.95 888.261 455.68 890.621C459.97 891.784 464.247 893.964 466.401 898.045C470.239 905.335 463.088 919.435 461.646 927.508C465.651 928.202 469.444 928.336 472.447 931.344C475.695 938.21 471.256 946.686 469.271 953.551L482.141 956.537C480.77 964.263 479.296 971.833 479.239 979.705C499.232 983.339 519.849 988.36 540.058 990.25C543.201 987.734 546.932 989.467 550.891 989.769C551.844 985.062 551.541 979.907 552.527 975.467C553.215 972.359 554.559 971.956 557.038 970.301L558.662 970.659C559.732 968.848 558.994 969.709 561.074 968.266C567.813 961.882 578.995 959.969 588.104 959.768C590.832 959.701 591.772 959.857 593.579 961.96C593.795 962.217 594.96 964.107 595.099 964.319C597.445 967.953 600.387 970.335 604.684 971.241C608.393 972.012 612.263 972.37 616.026 972.817C618.187 967.092 620.106 961.635 621.38 955.63C617.505 954.982 602.785 953.417 600.828 950.901C608.583 944.282 609.879 942.448 611.455 932.306L610.007 931.456C604.938 928.426 600.251 925.541 598.025 919.749C598.855 917.099 599.553 916.17 602.158 914.985C613.541 909.785 679.541 920.409 691.79 926.246C694.649 927.61 696.935 929.108 698.037 932.227C699.871 937.46 698.731 944.293 697.546 949.526C694.19 964.386 687.457 979.414 682.448 993.838C675.648 1013.41 670.027 1033.68 661.805 1052.7C650.985 1060.75 644.187 1060.91 631.21 1058.98C610.958 1055.98 590.849 1051.86 570.646 1048.52L457.12 1030.09C435.09 1026.3 408.299 1024.64 387.216 1018.45C383.655 1017.41 379.812 1014.42 377.724 1011.35C374.08 1005.97 374.666 997.853 376.179 991.893C381.375 971.397 400.77 939.597 411.006 919.213C414.295 912.66 416.959 904.43 421.083 898.459C422.642 896.211 425.21 894.209 427.542 892.823ZM628.575 1013C627.057 1018.09 624.498 1024.02 627.153 1029.15C627.899 1030.59 629.052 1031.23 630.405 1032C633.959 1031.95 636.637 1031.46 639.37 1029.1C642.664 1025.22 644.87 1021.6 647 1016.99C640.726 1015.98 634.597 1015.07 628.575 1013ZM594.574 1007C592.464 1012.85 591.231 1018.68 590 1024.76C598.73 1025.59 607.432 1026.67 616.096 1028C617.57 1022.37 619.063 1016.79 620 1011.04C611.602 1009.65 603.042 1007.79 594.574 1007ZM464.44 985.001C461.578 990.431 459.769 995.681 458 1001.54C483.149 1006.02 508.34 1010.27 533.571 1014.27C549.043 1016.86 564.697 1020.33 580.277 1022C582.227 1016.38 583.726 1010.88 585 1005.07C545.39 996.693 504.491 991.117 464.44 985.001ZM601.206 978.001C601.132 982.885 600.111 991.353 603.424 995.262C606.345 998.712 643.395 1004.09 648.598 1004C650.891 1003.95 651.728 1004.1 653.244 1002.07C653.539 1001.67 653.909 1000.39 654.07 999.888C655.923 995.341 657.602 990.569 660 986.279C640.561 983.042 620.895 979.345 601.206 978.001ZM425 996.492C432.687 997.975 440.258 999.48 448.078 1000C450.149 994.876 452.517 989.707 454 984.373L429.996 980.001L425 996.492ZM403.135 974.001C400.059 979.831 396.809 985.628 394 991.594C400.775 992.903 407.519 994.29 414.383 995.001C416.62 989.249 418.826 983.474 421 977.688C415.063 976.504 408.999 975.501 403.135 974.001ZM570.819 975.001C569.541 979.36 567.982 983.753 569.896 988.191C571.292 991.432 574.086 993.148 577.351 994.029C580.67 994.921 584.461 994.967 587.888 995.001C589.029 989.027 589.607 983.255 590 977.191C583.509 976.83 577.238 976.017 570.819 975.001ZM628.371 956.001C627.267 961.725 626.239 967.471 625 973.163C631.564 974.089 657.658 979.416 661.862 977.64C663.868 972.655 665.71 967.504 668 962.651C655.134 959.938 641.475 957.093 628.371 956.001ZM407 966.799C426.599 970.37 446.569 974.232 466.429 976.001C469.495 972.883 473.745 969.129 473.986 964.512C474.067 962.927 473.832 963.272 472.581 961.891C454.617 956.778 433.514 953.629 414.815 952.001L407 966.799ZM651.146 935.001C649.529 940.702 648.156 946.36 647 952.171C653.246 953.164 665.443 956.583 671.172 954.134C673.154 950.01 675.968 945.532 676 940.889C674.632 938.474 674.35 937.713 671.419 936.93C665.686 935.408 657.249 935.64 651.146 935.001ZM425.785 928.001C423.119 933.509 420.524 939.053 418 944.63C432.359 947.821 447.073 949.366 461.323 953.001C464.352 947.753 465.506 941.835 467 935.974C453.29 933.123 439.604 930.238 425.785 928.001ZM620.761 930.001C619.058 935.237 616.59 940.31 619.014 945.644C624.337 950.282 633.546 949.966 640.375 951.001C642.161 945.285 643.252 939.939 644 934.017C636.285 932.515 628.537 931.176 620.761 930.001ZM437.912 905.001C433.581 910.132 430.793 915.793 428 921.847C435.217 923.198 442.425 924.583 449.625 926.001C453.171 921.33 454.375 914.206 456 908.613C449.859 906.812 444.327 905.53 437.912 905.001Z" fill="black"/>
<path d="M984.551 896.65C994.025 891.913 1006.15 887.677 1016.65 891.456C1032.68 897.218 1039.94 924.583 1048.41 938.192L1059.47 960.117L1060.2 962.157C1065.42 976.346 1081.26 992.953 1074.23 1008.84C1072.71 1012.26 1070.03 1015.34 1067.35 1017.92C1044.59 1023.24 1021.41 1026.11 998.359 1029.86L884.623 1048.24C861.563 1051.81 835.229 1059.13 812.292 1059.98C806.382 1060.2 800.125 1058.92 795.153 1055.61C791.456 1053.14 789.232 1049.31 787.311 1045.41C777.702 1025.81 772.551 1002.13 766.105 981.206C762.898 970.773 758.329 960.184 756.541 949.417C755.267 941.715 756.217 937.267 759.669 930.368C771.032 924.895 837.587 912.857 848.458 916.112C850.033 916.58 851.151 917.449 852.368 918.497C853.173 921.127 852.96 922.342 851.709 924.828C849.408 929.387 844.782 930.613 840.324 932.262C841.196 937.579 841.966 942.896 843.329 948.112C847.709 947.867 851.542 947.377 855.687 949.093L855.597 950.531C847.586 954.321 838.95 955.09 830.492 957.364C831.934 962.413 833.196 967.63 835.051 972.534C841.844 972.601 849.027 972.656 855.038 969.123C858.673 967.793 858.673 967.794 863.173 966.794C872.173 966.294 874.947 964.647 883.673 965.294L886.015 965.59H887.383C889.003 965.199 888.109 965.362 889.673 964.794C894.555 972.016 889.014 982.657 895.673 990.794C896.173 991.794 895.148 992.412 897.415 991.855L904.69 991.426C923.191 990.925 956.212 982.642 974.189 977.961L973.942 976.69V974.623C972.457 970.466 971.802 973.124 972.673 970.294C973.533 967.518 970.394 968.05 970.673 964.294L967.513 954.276C970.395 953.017 973.702 954.142 976.674 954.688C977.78 954.655 979.11 954.075 980.171 953.741C981.735 947.365 975.758 940.577 976.92 933.265C979.009 930.401 979.926 930.523 983.233 929.52C981.59 918.642 978.786 907.44 982.629 896.806L984.551 896.65ZM820.656 1015.23C814.79 1016.16 808.799 1016.9 803 1018.18C806.193 1023.11 809.206 1028.48 812.996 1033L828 1031.45C827.03 1026.61 826.488 1018.2 822.811 1015L820.656 1015.23ZM856.935 1008.55C855.074 1007.95 854.109 1007.85 852.192 1008.2C845.415 1008.97 838.661 1009.65 832 1011.12C833.206 1016.54 834.011 1021.93 837.077 1026.7C838.536 1027.51 839.11 1027.88 840.832 1028C847.551 1026.8 854.19 1025.69 861 1025.03C860.081 1019.95 859.978 1012.86 856.935 1008.55ZM982.157 987.001C943.001 991.166 903.62 998.678 865 1006.4C866.153 1012.28 866.892 1018.12 869.971 1023.32C872.623 1024.15 871.403 1024.13 873.609 1023.74C912.62 1016.88 952.19 1011.36 991 1003.48C989.052 998.098 987.43 992.202 984.284 987.422L982.157 987.001ZM849.382 979.72C847.363 978.938 846.433 978.828 844.302 979.224C827.568 982.21 810.633 984.778 794 988.205C795.11 992.216 796.872 1002.58 800.326 1005.19C800.797 1005.55 801.38 1005.73 801.907 1006C817.654 1003.23 833.535 1000.94 849.247 998.055C850.346 992.105 852.5 985.318 849.382 979.72ZM1015.67 980.001C1008.15 981.523 1001.15 983.158 994 986.045C995.848 991.007 997.363 996.274 1000.69 1000.42C1003.33 1001.12 1002.13 1001.12 1004.29 1000.76C1011.21 999.69 1018.2 998.788 1025 997.051C1022.95 992.089 1020.59 983.034 1016.58 980.011L1015.67 980.001ZM878.205 976.001C872.279 976.994 866.757 978.167 861 979.996C862.361 985.707 863.171 991.238 866.803 996.001C871.919 995.47 875.214 995.346 878.711 991.102C881.376 987.863 883.254 984.657 882.973 980.323C882.838 978.303 881.702 977.795 880.387 976.418L878.205 976.001ZM1028 979.637C1030.28 984.361 1033.33 993.666 1038.32 996.001L1057 993.069C1054.33 987.727 1051.02 978.486 1045.96 975.001L1028 979.637ZM784 963.923C785.961 969.226 787.69 976.545 791.025 981.001C803.002 978.687 814.89 976.683 827 975.171L822.402 958.882L820.763 958.001L784 963.923ZM1020.71 924.001C1007.94 929.464 995.295 934.314 981.977 938.34C984.582 944.806 986.841 951.396 990.9 957.116C991.225 957.573 991.538 958.03 991.851 958.487L977 962.914C979.169 967.931 980.948 973.327 984.795 977.319C986.964 978.177 987.21 978.144 989.491 977.665C1007.08 974.141 1025.98 972.09 1043 966.604C1038.78 958.197 1026.2 929.286 1020.71 924.001ZM800.751 937.001C791.798 937.506 782.876 938.977 774 940.189C775.575 944.949 777.117 953.043 782.128 955.165C787.8 957.567 797.424 954.009 803.724 954.166C804.979 951.056 801.599 940.998 800.751 937.001ZM831.707 933.001C823.421 933.708 815.169 934.836 806.916 935.886L811.674 952.294L834 948.04L831.707 933.001ZM1012.44 906.551C1010.32 905.964 1009.71 905.853 1007.43 906.185L995 909.487C996.438 914.905 996.925 920.389 1001.56 924.001C1003.85 923.923 1005.93 923.679 1008.18 923.236L1020 919.58C1017.92 914.971 1016.26 910.03 1012.44 906.551Z" fill="black"/>
<path d="M88.2092 711C90.9858 711.135 93.6128 711.503 96.006 713.08C98.3524 714.622 98.2727 715.539 98.4347 718.066C93.9845 726.362 79.9627 732.645 71.9719 737.453C78.0924 741.802 93.8681 750.567 96.5119 757.41C97.111 758.964 96.1497 760.126 95.5695 761.557C87.7051 760.204 71.2849 746.52 64.0275 741.444L44.675 753.944C58.0481 762.195 69.7076 772.95 83.0383 781.346C86.9397 778.506 91.2698 775.712 96.1896 775.5L97.5392 776.785C97.8388 780.877 95.7965 784.578 94.2248 788.256C96.6367 792.094 152.25 830.819 159.709 835.236C160.491 834.945 161.236 834.654 162.053 834.464C167.248 833.257 173.338 838.276 178.053 840.892L190.845 832.339C183.389 823.272 173.392 818.364 164.945 810.65C162.96 808.839 162.551 807.486 162.594 804.904C173.367 799.962 180.75 815.883 190.176 817.996C192.274 818.465 195.219 815.86 197.004 814.753C200.003 814.72 200.767 814.194 203.312 815.96C203.916 819.583 202.257 823.529 201.219 827.006C206.782 829.69 211.614 832.664 216.661 836.186L229.199 824.279C222.115 819.919 214.856 815.692 207.903 811.142C204.711 809.04 203.39 807.687 202.644 803.953C204.654 797.915 214.121 791.14 215.065 786.948C216.383 781.089 213.441 775.812 218.404 770.848C225.301 769.741 240.724 783.18 246.553 787.216C261.743 798.095 289.514 813.68 301.539 826.09C304.364 829.008 306.178 831.691 305.987 835.973C305.779 840.635 303.845 844.828 300.417 847.981C285.531 861.677 265.641 872.354 248.713 883.568C235.63 892.233 222.749 902.217 208.953 909.663C204.139 912.268 195.332 916.873 189.914 915.856C184.374 914.816 176.755 909.483 172.044 906.386C141.44 886.206 112.167 863.331 82.4006 841.899C66.5076 830.439 12.4123 794.428 3.11053 782.722C-0.437677 778.272 -0.325552 772.872 0.42791 767.539C6.87739 756.872 74.2713 717.697 88.2092 711ZM193.354 867.004C192.96 867.014 192.51 867.066 191.971 867.167C187.72 871.247 183.54 875.427 179 879.196C182.905 882.042 189.058 887.834 194.208 886.9C196.179 886.544 198.079 885.132 199.724 884.087L210 879.318C209.984 879.304 209.969 879.29 209.953 879.276L210 879.255C205.93 875.705 201.827 871.711 197.32 868.736C195.567 867.579 194.887 866.96 193.354 867.004ZM171.566 851C166.161 854.608 162.037 858.456 158 863.667C162.464 867.927 166.849 872.702 172.013 876C176.597 871.088 181.261 866.266 186 861.525L171.566 851ZM186 847.638C193.975 853.238 213.08 870.951 221.055 872L222.984 870.827L238 861.118C228.505 854.175 209.18 837.523 198.943 834L186 847.638ZM82.256 792C77.1676 794.916 72.6334 798.045 68.0002 801.614C82.2774 812.915 97.4449 823.182 112.278 833.729C124.288 842.273 136.901 852.607 150.188 859L163 846.19C154.832 839.57 89.6172 792.203 82.256 792ZM234.82 828C230.897 831.972 226.994 835.755 224 840.502C231.014 845.816 238.932 852.539 246.989 856C248.506 855.446 249.013 855.612 249.853 854.17C253.891 850.399 257.988 848.734 263 846.637C253.905 840.381 244.66 832.97 234.82 828ZM254 832.272C258.123 835.345 263.902 840.98 268.939 842L269.914 841.767C274.318 838.905 278.898 836.154 283 832.881C277.689 828.91 271.933 823.774 265.915 821L254 832.272ZM233 817.392C236.519 819.968 245.454 828.331 249.351 829C253.52 825.142 257.658 821.273 262 817.619C256.395 813.284 250.815 808.983 244.955 805L233 817.392ZM224.848 790C220.151 793.803 216.007 797.493 212 802.108C217.31 806.429 222.441 810.615 228.361 814C231.875 809.871 235.315 805.617 239 801.645C234.419 797.448 230.002 793.419 224.848 790ZM56.4221 773C51.7888 776.515 47.2664 780.007 43.0002 783.98C48.352 787.998 54.4014 793.572 60.5617 796C65.033 792.654 69.6941 789.441 74.0002 785.882C69.1607 781.573 62.6477 774.937 56.4221 773ZM37.2111 757C31.8101 760.566 26.4384 764.2 21.0002 767.698C25.3749 771.241 29.7107 775.245 34.592 778C40.421 774.604 45.0522 770.656 50.0002 766.055C45.847 762.658 41.9909 759.441 37.2111 757Z" fill="black"/>
<path d="M1358.98 711.419C1361.37 710.704 1363.17 710.928 1365.38 711.912C1375.2 716.291 1448.28 758.847 1450.33 765.942C1452.06 771.941 1450.19 777.963 1447.64 783.393L1432.5 795.091C1395.33 821.492 1358.88 848.898 1321.85 875.511C1304.77 887.779 1287.38 901.711 1269.15 912.101C1265.28 914.314 1261.02 915.144 1256.69 915.989L1256.63 916C1252.56 914.783 1248.48 913.375 1244.76 911.308C1228.23 902.124 1212.53 890.046 1196.81 879.499C1183.15 870.338 1168.45 861.958 1155.48 851.892C1152.2 849.345 1147.6 845.68 1145.92 841.815C1144.9 839.446 1144.66 838.664 1145.54 836.295C1147.08 832.139 1150.34 828.698 1153.53 825.715C1163.64 816.241 1219.72 776.511 1231.71 770.947C1234.4 771.248 1234.23 771.64 1236.11 773.405C1237.63 778.186 1236.13 783.069 1236.03 788.007C1239.72 793.694 1245.84 797.962 1250.98 802.308C1242.87 811.414 1231.65 818.14 1221.72 825.079C1225.92 829.089 1230.61 832.675 1235.07 836.373C1238.67 833.781 1248.63 828.206 1250.13 824.028C1251.38 820.542 1249.1 818.877 1252.37 816.006C1256.39 816.219 1259.02 817.961 1262.45 819.961C1267.47 815.604 1272.97 809.626 1279.75 808.587C1281.77 809.403 1282.69 809.973 1284.08 811.671C1278.44 818.81 1269.15 824.106 1261.92 829.614C1265.25 833.479 1268.97 837.089 1272.5 840.776C1274.02 839.86 1275.59 838.999 1277.1 838.049C1283.47 834.083 1290.03 835.2 1296.67 831.457C1311.25 823.257 1343.01 799.124 1356.27 787.605C1355.88 783.047 1355.53 780.689 1358.38 776.879C1362.56 775.516 1364.52 777.661 1368.7 778.321C1372.92 778.98 1401.25 756.513 1407.02 752.323C1400.08 748.647 1393.11 745.06 1386.11 741.53C1378.27 746.535 1371.37 753.059 1363.51 757.919C1361.19 759.349 1358.46 761.506 1355.72 760.88L1355.64 757.853C1359.92 748.814 1372.01 743.261 1380.07 737.686C1372.92 732.502 1363.81 729.586 1357.21 723.687C1354.61 721.352 1353.59 719.464 1353.33 716.034C1354.88 713.665 1356.15 712.268 1358.98 711.419ZM1257.69 867C1251.87 871.379 1246.13 875.928 1240 879.849C1246.27 883.267 1252.63 887.2 1259.19 890C1264.07 887.165 1268.5 883.953 1273 880.57C1268.16 875.871 1263.43 870.59 1257.69 867ZM1265 861.473C1268.93 865.539 1275.37 873.959 1281.12 875L1295 863.778C1289.93 859.701 1284.81 854.803 1278.87 852L1265 861.473ZM1238.93 844.144L1227.66 852.087C1224.28 854.312 1219.51 856.76 1216.93 859.874C1215.61 861.476 1216.03 860.631 1216.19 863.133C1220.85 866.782 1226.1 870.408 1231.42 873C1243.49 866.07 1253.71 856.148 1265.57 848.761L1267 847.871C1261.68 843.777 1256.64 839.428 1251.59 835L1238.93 844.144ZM1215.85 829C1207.23 835.528 1198.47 841.929 1190 848.662L1204.84 859C1211.09 853.626 1218.77 845.844 1226.36 842.786L1228 840.229L1226.99 837.639C1223.15 834.889 1219.44 832.081 1215.85 829ZM1366.65 791C1344.42 805.463 1308.51 830.065 1289 847.068C1292.64 850.756 1297.58 857.396 1302.52 859L1304.51 858.41C1329.91 839.034 1358.65 823.134 1383 802.421C1377.71 798.399 1372.54 794.154 1366.65 791ZM1227.22 791C1207.17 805.043 1187.51 819.839 1167 833.206C1171.96 837.257 1176.79 840.09 1182.45 843C1191.65 841.352 1227.96 811.938 1239 804.933C1235.32 800.097 1231.85 794.995 1227.22 791ZM1375 786.371C1379.62 789.37 1386.82 795.545 1392.33 796C1397.93 792.025 1403.65 788.093 1409 783.829C1403.5 779.053 1398.6 775.321 1391.5 773L1375 786.371ZM1410.86 757C1407.57 760.386 1404.21 763.726 1401 767.191C1404.55 770.828 1410.11 777.826 1415.49 777.997C1416.81 778.043 1418.02 777.494 1419.17 776.934C1422.67 773.983 1426.09 770.884 1430 768.483C1424.56 764.56 1417.57 758.064 1410.86 757Z" fill="black"/>
</mask>
<g mask="url(#mask0_14_73)">
<rect x="-0.326721" y="-1.20654" width="1451" height="1060" fill="url(#paint0_linear_14_73)"/>
</g>
<defs>
<linearGradient id="paint0_linear_14_73" x1="725.173" y1="-1.20654" x2="725.173" y2="1058.79" gradientUnits="userSpaceOnUse">
<stop stop-color="#E84239"/>
<stop offset="0.0001" stop-color="#F7E463"/>
<stop offset="0.5" stop-color="#F46817"/>
<stop offset="0.9999" stop-color="#F4E450"/>
<stop offset="1" stop-color="#E84239"/>
</linearGradient>
</defs>
</svg>
